<?xml version="1.0" encoding="UTF-8" standalone="no"?>
<svg
   xmlns:dc="http://purl.org/dc/elements/1.1/"
   xmlns:cc="http://creativecommons.org/ns#"
   xmlns:rdf="http://www.w3.org/1999/02/22-rdf-syntax-ns#"
   xmlns:svg="http://www.w3.org/2000/svg"
   xmlns="http://www.w3.org/2000/svg"
   xmlns:sodipodi="http://sodipodi.sourceforge.net/DTD/sodipodi-0.dtd"
   xmlns:inkscape="http://www.inkscape.org/namespaces/inkscape"
   data-name="Layer 1"
   viewBox="0 0 62 58.5"
   x="0px"
   y="0px"
   version="1.1"
   id="svg26"
   sodipodi:docname="algorithm.svg"
   inkscape:version="0.92.5 (2060ec1f9f, 2020-04-08)"
   width="62"
   height="58.5">
  <metadata
     id="metadata32">
    <rdf:RDF>
      <cc:Work
         rdf:about="">
        <dc:format>image/svg+xml</dc:format>
        <dc:type
           rdf:resource="http://purl.org/dc/dcmitype/StillImage" />
      </cc:Work>
    </rdf:RDF>
  </metadata>
  <defs
     id="defs30" />
  <sodipodi:namedview
     pagecolor="#ffffff"
     bordercolor="#666666"
     borderopacity="1"
     objecttolerance="10"
     gridtolerance="10"
     guidetolerance="10"
     inkscape:pageopacity="0"
     inkscape:pageshadow="2"
     inkscape:window-width="924"
     inkscape:window-height="1016"
     id="namedview28"
     showgrid="false"
     inkscape:zoom="5.9"
     inkscape:cx="28.804327"
     inkscape:cy="7.4284611"
     inkscape:window-x="72"
     inkscape:window-y="27"
     inkscape:window-maximized="0"
     inkscape:current-layer="svg26" />
  <ellipse
     cx="6.0224171"
     cy="39.066856"
     id="circle2"
     rx="2.9015856"
     ry="2.7740114"
     style="stroke-width:0.94569379" />
  <path
     d="M 3.1208311,56.635593 H 8.9240022 L 9.8911975,49.23823 H 10.858392 V 44.614878 A 1.9343904,1.8493409 0 0 0 8.9240022,42.765537 H 3.1208311 a 1.9343904,1.8493409 0 0 0 -1.9343904,1.849341 v 4.623352 h 0.9671952 z"
     id="path4"
     inkscape:connector-curvature="0"
     style="stroke-width:0.94569379" />
  <ellipse
     cx="17.628759"
     cy="39.066856"
     id="circle6"
     rx="2.9015856"
     ry="2.7740114"
     style="stroke-width:0.94569379" />
  <path
     d="m 22.464734,44.614878 a 1.9343904,1.8493409 0 0 0 -1.93439,-1.849341 h -5.803171 a 1.9343904,1.8493409 0 0 0 -1.934391,1.849341 v 2.774011 l 2.901586,1.849341 -2.901586,4.623352 h 2.901586 v 2.774011 h 3.868781 v -2.774011 h 2.901585 l -2.901585,-4.623352 2.901585,-1.849341 z"
     id="path8"
     inkscape:connector-curvature="0"
     style="stroke-width:0.94569379" />
  <ellipse
     cx="44.710224"
     cy="39.066856"
     id="circle10"
     rx="2.9015856"
     ry="2.7740114"
     style="stroke-width:0.94569379" />
  <path
     d="m 39.874248,44.614878 v 4.623352 h 0.967195 l 0.967195,7.397363 h 5.803171 l 0.967195,-7.397363 h 0.967195 v -4.623352 a 1.9343904,1.8493409 0 0 0 -1.93439,-1.849341 h -5.803171 a 1.9343904,1.8493409 0 0 0 -1.93439,1.849341 z"
     id="path12"
     inkscape:connector-curvature="0"
     style="stroke-width:0.94569379" />
  <ellipse
     cx="56.316566"
     cy="39.066856"
     id="circle14"
     rx="2.9015856"
     ry="2.7740114"
     style="stroke-width:0.94569379" />
  <path
     d="M 59.218151,42.765537 H 53.41498 a 1.9343904,1.8493409 0 0 0 -1.93439,1.849341 v 2.774011 l 2.901585,1.849341 -2.901585,4.623352 h 2.901585 v 2.774011 h 3.868781 v -2.774011 h 2.901586 l -2.901586,-4.623352 2.901586,-1.849341 v -2.774011 a 1.9343904,1.8493409 0 0 0 -1.934391,-1.849341 z"
     id="path16"
     inkscape:connector-curvature="0"
     style="stroke-width:0.94569379" />
  <path
     d="M 59.218151,3.0047081 H 41.808638 V 21.498117 h 5.803171 v 12.945386 a 0.96719519,0.92467043 0 0 0 0.967195,0.92467 h 3.868781 a 0.96719519,0.92467043 0 0 0 0.967195,-0.92467 V 21.498117 h 5.803171 z M 51.48059,33.518833 H 49.546199 V 21.498117 h 1.934391 z m 3.868781,-17.994087 -1.412105,1.350019 -3.423871,-3.319567 -3.423871,3.319567 -1.363746,-1.303786 3.423871,-3.319566 -3.423871,-3.2733339 1.363746,-1.3037853 3.423871,3.2733342 3.423871,-3.2733342 1.412105,1.3037853 -3.472231,3.2733339 z"
     id="path18"
     style="fill:#53c1b6;fill-opacity:1;stroke:#53c1b6;stroke-width:0.94569379;stroke-opacity:0"
     inkscape:connector-curvature="0" />
  <path
     d="m 9.8911975,35.368173 h 3.8687795 a 0.96719519,0.92467043 0 0 0 0.967196,-0.92467 V 21.498117 h 5.803171 V 3.0047081 H 3.1208311 V 21.498117 h 5.8031711 v 12.945386 a 0.96719519,0.92467043 0 0 0 0.9671953,0.92467 z m 2.9015845,-1.84934 h -1.93439 V 21.498117 h 1.93439 z m -6.4221751,-19.020471 1.2380099,-1.414746 2.9983042,2.38565 5.222854,-8.3220343 1.663576,0.9246704 -5.803171,9.2467049 a 0.96719519,0.92467043 0 0 1 -0.667365,0.443841 h -0.164423 a 0.96719519,0.92467043 0 0 1 -0.619005,-0.212674 z"
     id="path20"
     style="fill:#53c1b6;fill-opacity:1;stroke:#53c1b6;stroke-width:0.94569379;stroke-opacity:0"
     inkscape:connector-curvature="0" />
</svg>
