<?xml version="1.0" encoding="UTF-8" standalone="no"?>
<svg
   xmlns:dc="http://purl.org/dc/elements/1.1/"
   xmlns:cc="http://creativecommons.org/ns#"
   xmlns:rdf="http://www.w3.org/1999/02/22-rdf-syntax-ns#"
   xmlns:svg="http://www.w3.org/2000/svg"
   xmlns="http://www.w3.org/2000/svg"
   xmlns:sodipodi="http://sodipodi.sourceforge.net/DTD/sodipodi-0.dtd"
   xmlns:inkscape="http://www.inkscape.org/namespaces/inkscape"
   version="1.1"
   x="0px"
   y="0px"
   viewBox="0 0 73.114563 68.346313"
   xml:space="preserve"
   id="svg18"
   sodipodi:docname="election.svg"
   inkscape:version="0.92.5 (2060ec1f9f, 2020-04-08)"
   width="73.114563"
   height="68.346313"><metadata
     id="metadata24"><rdf:RDF><cc:Work
         rdf:about=""><dc:format>image/svg+xml</dc:format><dc:type
           rdf:resource="http://purl.org/dc/dcmitype/StillImage" /></cc:Work></rdf:RDF></metadata><defs
     id="defs22" /><sodipodi:namedview
     pagecolor="#ffffff"
     bordercolor="#666666"
     borderopacity="1"
     objecttolerance="10"
     gridtolerance="10"
     guidetolerance="10"
     inkscape:pageopacity="0"
     inkscape:pageshadow="2"
     inkscape:window-width="924"
     inkscape:window-height="1016"
     id="namedview20"
     showgrid="false"
     inkscape:zoom="1.888"
     inkscape:cx="94.02553"
     inkscape:cy="11.61017"
     inkscape:window-x="72"
     inkscape:window-y="27"
     inkscape:window-maximized="0"
     inkscape:current-layer="svg18" /><path
     d="m 5.0663191,67.816652 c 0.4791203,0 0.8675851,-0.36435 0.8675851,-0.814617 V 54.716767 H 31.857666 v 12.285268 c 0,0.450267 0.388465,0.814617 0.867586,0.814617 0.479121,0 0.867584,-0.36435 0.867584,-0.814617 V 54.716767 h 1.144213 c 0.479121,0 0.867586,-0.364349 0.867586,-0.814616 v -5.529683 c 0,-0.450267 -0.388465,-0.814617 -0.867586,-0.814617 H 19.995305 v -1.602979 c 1.247895,-0.288376 2.179554,-1.340358 2.179554,-2.59977 v -2.221896 c 0,-1.48047 -1.282738,-2.684893 -2.859473,-2.684893 h -0.186819 c -1.576733,0 -2.859471,1.204423 -2.859471,2.684893 v 2.221896 c 0,1.194378 0.840472,2.197185 1.991039,2.544729 v 1.65802 H 6.4651307 v -2.078702 l 0.7518822,-0.70175 c 0.487063,0.262472 1.0287744,0.40502 1.5755161,0.40502 0.8095474,0 1.619097,-0.28798 2.235471,-0.863938 l 2.871759,-2.68171 c 0.598581,-0.559253 0.928587,-1.303068 0.928587,-2.093817 0,-0.790751 -0.330006,-1.534566 -0.928587,-2.093818 -1.232751,-1.151919 -3.238195,-1.151919 -4.4709444,0 l -2.8717572,2.681709 c -0.5990067,0.559253 -0.9285875,1.303067 -0.9285875,2.094614 2.645e-4,0.491783 0.1414909,0.959152 0.381793,1.381277 l -1.0244323,0.955971 c -0.1635198,0.15274 -0.2558699,0.360372 -0.2558699,0.57755 v 2.417595 H 2.9863178 c -0.4791204,0 -0.867585,0.364349 -0.867585,0.814616 v 5.529683 c 0,0.450267 0.3884646,0.814616 0.867585,0.814616 h 1.2124164 v 12.285268 c 0,0.450267 0.3884644,0.814617 0.8675849,0.814617 z M 18.004266,41.133206 c 0,-0.582325 0.504538,-1.055662 1.124301,-1.055662 h 0.186819 c 0.619764,0 1.124303,0.473337 1.124303,1.055662 v 2.221896 c 0,0.582321 -0.504539,1.05566 -1.124303,1.05566 h -0.186819 c -0.619764,0 -1.124301,-0.473339 -1.124301,-1.05566 z M 7.7804876,41.285945 10.652243,38.604236 c 0.279172,-0.260932 0.645607,-0.390602 1.012043,-0.390602 0.366436,0 0.732872,0.12967 1.012042,0.390602 0.268578,0.251385 0.416848,0.58471 0.416848,0.938718 0,0.354007 -0.14827,0.687331 -0.416848,0.938717 L 9.8045703,43.16338 c -0.5583387,0.521864 -1.4661684,0.521864 -2.0236593,0 -4.234e-4,0 -4.234e-4,0 -4.234e-4,0 -0.2685783,-0.250589 -0.4168477,-0.583913 -0.4168477,-0.937921 0,-0.354803 0.1482694,-0.688128 0.4168477,-0.939514 z M 3.8539028,49.187084 H 33.869464 v 3.90045 H 3.8539028 Z"
     id="path2"
     inkscape:connector-curvature="0"
     style="stroke-width:0.8406834" /><path
     d="m 68.577947,67.816652 c 0.47912,0 0.867584,-0.364351 0.867584,-0.814617 V 54.716766 h 1.212418 c 0.47912,0 0.867584,-0.364348 0.867584,-0.814615 v -5.529684 c 0,-0.450266 -0.388464,-0.814616 -0.867584,-0.814616 h -1.743644 v -2.417594 c 0,-0.21718 -0.09235,-0.42481 -0.25587,-0.57755 l -1.024432,-0.955971 c 0.240303,-0.422125 0.381529,-0.889495 0.381794,-1.381278 0,-0.791546 -0.329582,-1.53536 -0.928588,-2.094613 l -2.871758,-2.681709 c -1.232749,-1.151919 -3.238192,-1.151919 -4.470943,0 -0.598583,0.559251 -0.928587,1.303067 -0.928587,2.093817 0,0.79075 0.330004,1.534564 0.928587,2.093817 l 2.871757,2.68171 c 0.616375,0.575959 1.425924,0.863939 2.235471,0.863939 0.546744,0 1.088454,-0.142548 1.575517,-0.405021 l 0.751883,0.701751 v 2.078702 H 55.384132 v -1.65802 c 1.150566,-0.347544 1.991039,-1.350351 1.991039,-2.544729 v -2.221897 c 0,-1.480469 -1.282738,-2.684892 -2.859472,-2.684892 H 54.32888 c -1.576735,0 -2.859472,1.204423 -2.859472,2.684892 v 2.221897 c 0,1.259412 0.931659,2.311393 2.179554,2.599769 v 1.60298 H 38.907217 c -0.47912,0 -0.867585,0.36435 -0.867585,0.814616 v 5.529684 c 0,0.450267 0.388465,0.814615 0.867585,0.814615 h 1.144213 v 12.285269 c 0,0.450266 0.388464,0.814617 0.867585,0.814617 0.479121,0 0.867585,-0.364351 0.867585,-0.814617 V 54.716766 h 25.923761 v 12.285269 c 0,0.450266 0.388466,0.814617 0.867586,0.814617 z M 65.863355,43.16338 c -0.557491,0.521863 -1.46532,0.521863 -2.02366,0 l -2.871756,-2.681709 c -0.268579,-0.251386 -0.416848,-0.58471 -0.416848,-0.938718 0,-0.354007 0.148269,-0.687332 0.416848,-0.938718 0.279169,-0.260931 0.645605,-0.390601 1.012042,-0.390601 0.366435,0 0.732871,0.12967 1.012041,0.390601 l 2.871756,2.68171 c 0.268578,0.251386 0.416848,0.58471 0.416848,0.939513 0,0.354008 -0.14827,0.687333 -0.416848,0.937922 0,0 0,0 -4.23e-4,0 z m -12.658778,0.191722 v -2.221897 c 0,-0.582324 0.504539,-1.055661 1.124303,-1.055661 h 0.186819 c 0.619764,0 1.124302,0.473337 1.124302,1.055661 v 2.221897 c 0,0.582321 -0.504538,1.055659 -1.124302,1.055659 H 54.32888 c -0.619764,0 -1.124303,-0.473338 -1.124303,-1.055659 z m -13.429775,5.831982 h 30.015561 v 3.90045 H 39.774802 Z"
     id="path4"
     inkscape:connector-curvature="0"
     style="stroke-width:0.8406834" /><path
     d="m 39.532489,20.565742 c 0.127088,0.06285 0.265614,0.09387 0.403715,0.09387 0.179617,0 0.358811,-0.05249 0.510046,-0.155923 0.266883,-0.182175 0.40075,-0.490838 0.345254,-0.796319 l -0.550289,-3.011056 2.32994,-2.132799 c 0.236806,-0.216382 0.321956,-0.54016 0.219863,-0.834503 -0.102095,-0.29514 -0.37364,-0.509932 -0.700255,-0.554481 L 38.870362,12.734609 37.430459,9.9948272 c -0.292302,-0.5568668 -1.264099,-0.5568668 -1.556401,0 l -1.439903,2.7397818 -3.220399,0.439925 c -0.326616,0.04455 -0.59816,0.259341 -0.700254,0.554481 -0.102093,0.294343 -0.01695,0.618121 0.219861,0.834503 l 2.329941,2.132799 -0.550289,3.011056 c -0.05549,0.305481 0.07794,0.614144 0.345254,0.796319 0.267309,0.18297 0.621459,0.206835 0.91376,0.06205 l 2.880229,-1.420804 z m -5.011913,-2.209965 0.330428,-1.806633 c 0.0483,-0.264114 -0.04532,-0.533796 -0.249938,-0.720745 l -1.397542,-1.279201 1.931732,-0.264113 c 0.282559,-0.03819 0.526567,-0.205245 0.653232,-0.445493 l 0.86377,-1.643552 0.863774,1.643552 c 0.126664,0.240248 0.370673,0.407308 0.653231,0.445493 l 1.932154,0.264113 -1.397539,1.279201 c -0.20461,0.186949 -0.297809,0.456631 -0.249938,0.720745 l 0.330003,1.807429 -1.727968,-0.8528 c -0.126241,-0.06286 -0.26519,-0.09387 -0.403716,-0.09387 -0.138524,0 -0.277474,0.03103 -0.403714,0.09387 z"
     id="path6"
     style="fill:#53c1b6;fill-opacity:1;stroke-width:0.8406834"
     inkscape:connector-curvature="0" /><path
     d="m 55.985679,16.180817 -0.203764,3.050037 c -0.02076,0.309458 0.147421,0.603006 0.434217,0.757339 0.133866,0.0724 0.282981,0.108189 0.431674,0.108189 0.169027,0 0.337629,-0.04613 0.483781,-0.13842 l 2.701459,-1.703215 3.025958,1.124074 c 0.305857,0.112964 0.656195,0.05488 0.901049,-0.153536 0.244857,-0.207632 0.342715,-0.528228 0.252482,-0.826549 l -0.890461,-2.938664 2.073647,-2.354749 c 0.210542,-0.239452 0.258412,-0.569594 0.123275,-0.8528 -0.135137,-0.283207 -0.429556,-0.46936 -0.759561,-0.480497 L 61.307686,11.659061 59.563196,9.079179 C 59.386545,8.8174519 59.067555,8.671871 58.737974,8.7060784 c -0.328311,0.033415 -0.608327,0.2386572 -0.721858,0.529819 l -1.119642,2.8686576 -3.15135,0.76052 c -0.319838,0.07717 -0.565116,0.31821 -0.632896,0.6221 -0.06778,0.303094 0.05337,0.616531 0.313482,0.808251 z m 1.784735,-2.604544 c 0.276626,-0.06682 0.500301,-0.256954 0.598582,-0.509135 l 0.671447,-1.721513 1.046779,1.548089 c 0.152927,0.225929 0.415154,0.367532 0.700252,0.377078 l 1.950795,0.06841 -1.243764,1.412055 c -0.182158,0.206837 -0.244008,0.484474 -0.166061,0.742223 l 0.534193,1.763676 -1.81566,-0.674604 c -0.264766,-0.09785 -0.564693,-0.06841 -0.80277,0.08114 l -1.620367,1.021452 0.122005,-1.829703 c 0.01779,-0.267296 -0.105484,-0.526636 -0.33043,-0.692107 l -1.535641,-1.131228 z"
     id="path8"
     style="fill:#53c1b6;fill-opacity:1;stroke-width:0.8406834"
     inkscape:connector-curvature="0" /><path
     d="M 23.979926,4.438095 6.3253341,2.6529406 C 6.0969996,2.6298707 5.8652764,2.6935166 5.6856594,2.8303419 5.5060424,2.9671722 5.3920869,3.1660533 5.3692111,3.3816398 L 5.2375699,4.6196738 C 3.9191939,4.36436 3.2012021,4.1999356 3.1922001,4.1978468 2.7240936,4.091247 2.2572583,4.3593388 2.143727,4.7960804 2.0297715,5.232823 2.3148712,5.6735433 2.7804356,5.780939 c 0,0 0.8081718,0.1849595 2.2839245,0.468414 L 3.0002972,25.664251 c -0.026688,0.25059 0.071168,0.497998 0.2651895,0.671423 0.1940207,0.172629 0.4604812,0.251384 0.7273652,0.215586 l 8.8512321,-1.249767 8.365756,2.990373 c 0.09997,0.0358 0.204611,0.05331 0.308822,0.05331 0.159283,0 0.317295,-0.04136 0.456246,-0.121715 0.229604,-0.133649 0.380414,-0.359578 0.407103,-0.611757 L 24.387455,8.7443645 c 0.849262,0.06429 1.716159,0.1240521 2.601059,0.178247 V 27.530549 c 0,0.252182 0.124547,0.490838 0.33763,0.64517 0.212661,0.155126 0.490135,0.209222 0.750241,0.142398 l 8.658058,-2.132002 8.65848,2.132002 c 0.07285,0.0183 0.146575,0.02704 0.220286,0.02704 0.189785,0 0.376602,-0.05887 0.529955,-0.169444 0.213085,-0.154333 0.33763,-0.392989 0.33763,-0.645171 V 9.0601356 c 0.86695,-0.043453 1.740201,-0.094468 2.618376,-0.1526908 l 1.988128,18.7042482 c 0.02669,0.252181 0.177499,0.47811 0.407105,0.611758 0.138949,0.08034 0.29696,0.121714 0.456236,0.121714 0.10422,0 0.208855,-0.0175 0.30883,-0.05331 l 8.365757,-2.990373 8.85123,1.249767 c 0.266461,0.0366 0.533769,-0.04216 0.727366,-0.215586 0.19402,-0.173424 0.291877,-0.420832 0.26519,-0.671422 L 68.412257,6.3179166 C 69.229855,6.1462828 70.047662,5.9694281 70.865525,5.780143 71.330665,5.6727474 71.614919,5.231232 71.500115,4.7944895 71.385737,4.3577479 70.913819,4.088065 70.450371,4.1986427 69.712947,4.3692827 68.975625,4.5272434 68.238465,4.6830175 L 68.100098,3.3816398 C 68.077219,3.1660533 67.963267,2.9671722 67.783649,2.8303428 67.604456,2.6935125 67.374004,2.6306659 67.143975,2.6529406 L 49.489383,4.438095 c -0.474037,0.047728 -0.818021,0.4454932 -0.770577,0.8909863 l 0.207949,1.9562921 C 48.10651,7.3393174 47.290978,7.386802 46.480795,7.4275232 V 5.12861 c 0,-0.4502668 -0.388464,-0.814616 -0.867585,-0.814616 H 27.856099 c -0.47912,0 -0.867585,0.3643492 -0.867585,0.814616 V 7.2895996 C 26.163292,7.2383848 25.353638,7.1828002 24.559764,7.1232852 L 24.750501,5.3290813 C 24.797948,4.8835882 24.453963,4.4858267 23.979926,4.438095 Z M 66.460243,4.360927 68.631748,24.7844 60.658268,23.657938 c -0.147845,-0.01911 -0.298655,-0.0048 -0.438028,0.04455 L 52.701311,26.390564 50.531078,5.9710687 Z M 28.723684,5.9432251 h 16.02194 V 26.47489 l -7.790895,-1.918803 c -0.07245,-0.01829 -0.146152,-0.02704 -0.220286,-0.02704 -0.07413,0 -0.147845,0.0088 -0.220286,0.02704 L 28.723684,26.47489 Z M 20.767997,26.390564 13.249069,23.702491 c -0.09913,-0.035 -0.203764,-0.05331 -0.308822,-0.05331 -0.0432,0 -0.08599,0.0031 -0.129206,0.0088 L 4.8375612,24.784401 7.0090657,4.3609282 22.938232,5.971067 Z"
     id="path10"
     style="fill:#53c1b6;fill-opacity:1;stroke-width:0.8406834"
     inkscape:connector-curvature="0" /><path
     d="m 10.347234,15.460072 -0.8904604,2.938664 c -0.090232,0.298321 0.00756,0.618917 0.2524809,0.826549 0.2448549,0.208426 0.5947695,0.2665 0.9010525,0.153536 l 3.025532,-1.124074 2.701883,1.703215 c 0.146152,0.09228 0.314755,0.13842 0.483781,0.13842 0.148693,0 0.297808,-0.0358 0.432098,-0.108189 0.286371,-0.154333 0.454551,-0.447881 0.433792,-0.757339 L 17.48363,16.180817 20.0436,14.295426 c 0.260104,-0.19172 0.381262,-0.505157 0.313482,-0.808251 -0.06778,-0.30389 -0.31306,-0.544934 -0.632897,-0.6221 L 16.572412,12.104555 15.453193,9.2358974 C 15.339661,8.9447356 15.060069,8.7394907 14.731335,8.7060784 14.400484,8.6718728 14.082764,8.8174519 13.906113,9.079179 l -1.744489,2.579882 -3.2517507,0.112965 c -0.3300042,0.01112 -0.6244244,0.19729 -0.7595611,0.480497 -0.135136,0.283206 -0.087266,0.613348 0.1232752,0.8528 z m 2.334601,-2.18928 c 0.2851,-0.0095 0.547324,-0.151149 0.700253,-0.377078 l 1.046356,-1.547292 0.671445,1.720716 c 0.09828,0.252181 0.321956,0.442312 0.598583,0.509135 l 1.891064,0.455835 -1.535642,1.131234 c -0.224946,0.16547 -0.34822,0.424809 -0.330427,0.692106 l 0.122002,1.829703 -1.620791,-1.021452 c -0.145302,-0.09149 -0.313906,-0.138421 -0.483779,-0.138421 -0.108025,0 -0.216049,0.01911 -0.319415,0.05728 l -1.814811,0.673811 0.534192,-1.76288 c 0.07794,-0.257748 0.0161,-0.535387 -0.166061,-0.742223 l -1.243765,-1.41206 z"
     id="path12"
     style="fill:#53c1b6;fill-opacity:1;stroke-width:0.8406834"
     inkscape:connector-curvature="0" /></svg>