<?xml version="1.0" encoding="UTF-8" standalone="no"?>
<svg
   xmlns:dc="http://purl.org/dc/elements/1.1/"
   xmlns:cc="http://creativecommons.org/ns#"
   xmlns:rdf="http://www.w3.org/1999/02/22-rdf-syntax-ns#"
   xmlns:svg="http://www.w3.org/2000/svg"
   xmlns="http://www.w3.org/2000/svg"
   xmlns:sodipodi="http://sodipodi.sourceforge.net/DTD/sodipodi-0.dtd"
   xmlns:inkscape="http://www.inkscape.org/namespaces/inkscape"
   data-name="Слой 1"
   viewBox="0 0 36.304295 85.982979"
   x="0px"
   y="0px"
   version="1.1"
   id="svg1015"
   sodipodi:docname="arrow.svg"
   width="36.304295"
   height="85.982979"
   inkscape:version="0.92.5 (2060ec1f9f, 2020-04-08)">
  <metadata
     id="metadata1021">
    <rdf:RDF>
      <cc:Work
         rdf:about="">
        <dc:format>image/svg+xml</dc:format>
        <dc:type
           rdf:resource="http://purl.org/dc/dcmitype/StillImage" />
      </cc:Work>
    </rdf:RDF>
  </metadata>
  <defs
     id="defs1019" />
  <sodipodi:namedview
     pagecolor="#ffffff"
     bordercolor="#666666"
     borderopacity="1"
     objecttolerance="10"
     gridtolerance="10"
     guidetolerance="10"
     inkscape:pageopacity="0"
     inkscape:pageshadow="2"
     inkscape:window-width="1848"
     inkscape:window-height="1009"
     id="namedview1017"
     showgrid="false"
     inkscape:zoom="6.528"
     inkscape:cx="-9.9575215"
     inkscape:cy="43.559195"
     inkscape:window-x="0"
     inkscape:window-y="34"
     inkscape:window-maximized="1"
     inkscape:current-layer="svg1015" />
  <title
     id="title1007">Arrow-01-01-01-01</title>
  <path
     d="m 17.887994,85.982978 c -2.8675,-4.6125 -5.32341,-9.19411 -8.6903601,-13.18953 a 18.32907,18.32907 0 0 1 -1.92866,-2.7777 c -2.09816,-3.71222 -4.79472,-7.04272 -6.82761005,-10.79813 -0.49841,-0.92073 -0.7468,-1.56032 0.20566,-2.38658 a 6.157,6.157 0 0 0 1.72924005,-2.65073 1.46681,1.46681 0 0 1 1.87328,-1.11577 c 1.61582,0.32995 3.253,-0.03705 4.88459,0.18456 1.1202401,0.15216 1.2898201,-0.19968 1.1172501,-1.32782 -0.6135501,-4.0113 -1.0862501,-8.0483 -1.8377801,-12.03312 -0.83635,-4.43418 -1.17334,-8.96618 -2.30167,-13.32518 -0.88787,-3.43015 -0.82171,-6.94464 -1.50323,-10.37916 -0.47417,-2.3896 -0.6605,-4.836 -0.98753,-7.2553897 a 3.79541,3.79541 0 0 0 -0.31107,-1.45888 1.39022,1.39022 0 0 1 0.22486,-1.805 29.54758,29.54758 0 0 0 2.27353,-4.0680006 1.39842,1.39842 0 0 1 1.34542,-1.0162 c 2.37805,-0.13767 4.7520001,-0.35325 7.1250501,-0.56716 a 15.74138,15.74138 0 0 1 3.552,0.25771 c 3.26535,0.44289 6.51629,-0.11858 9.775,-0.16219 0.50219,-0.00672 1.00518,-0.07392 1.50567,-0.05528 a 1.05317,1.05317 0 0 1 1.077,1.07487 7.49009,7.49009 0 0 1 0.03957,1.30735 c -0.588,7.0020006 -0.69774,14.0342103 -1.35851,21.0329003 -0.2418,2.56114 -0.31307,5.14922 -0.349,7.71591 -0.07148,5.10134 -0.71313,10.14261 -1.176,15.20474 -0.06282,0.6872 0.0026,1.386 -0.05749,2.07361 a 7.51305,7.51305 0 0 1 -0.63174,3.286 c -0.53839,0.95423 -0.13642,1.50987 0.95032,1.70938 a 0.94,0.94 0 0 0 0.18744,0.01862 c 2.441,-0.05076 4.88377,-0.0638 7.32217,-0.17317 1.031,-0.04624 1.43674,0.27788 1.03758,1.22186 -0.70884,1.67635 -1.5356,3.30237 -2.2832,4.96287 a 94.69163,94.69163 0 0 1 -5.659,10.40124 53.02267,53.02267 0 0 0 -4.73674,9.17627 17.28078,17.28078 0 0 1 -2.29072,4.097 18.01436,18.01436 0 0 1 -3.29532,2.8201 z M 4.0937139,54.525258 c 0.79673,1.411 1.32457,2.53107 1.99746,3.591 a 95.04077,95.04077 0 0 1 5.1595001,8.50415 c 2.11713,4.26772 4.4864,8.39746 6.63307,12.64645 a 5.11179,5.11179 0 0 0 2.42967,2.70729 c 0.47507,-0.99335 1.19935,-1.81163 1.689,-2.85088 a 58.67239,58.67239 0 0 1 3.92272,-7.69708 c 0.69428,-1.04333 1.28468,-2.15515 1.94672,-3.22066 1.98756,-3.19878 3.50465,-6.64545 5.25811,-9.96739 a 7.78237,7.78237 0 0 0 1.265,-3.5581 c -2.252,0 -4.44343,-0.0059 -6.63473,0.0041 a 6.55049,6.55049 0 0 1 -1.68649,-0.07344 0.68461,0.68461 0 0 1 -0.618,-0.93579 c 0.83109,-3.42579 0.81934,-6.95972 1.2453,-10.43681 0.18117,-1.479 0.53268,-2.95874 0.568,-4.43512 0.198,-8.26833 0.63384,-16.52317 1.16953,-24.77481 0.24276,-3.73986 0.41909,-7.4839997 0.31694,-11.2348103 -0.03961,-1.45412 -0.03779,-1.45478 -1.47509,-1.429 -0.18852,0.00336 -0.37676,0.02069 -0.56528,0.02518 -3.62911,0.08639 -7.24085,0.52324 -10.89355,0.05647 -2.4249,-0.30987 -4.8769,0.29382 -7.3208501,0.42439 -0.85805,0.04583 -1.1722,0.36518 -1.02058,1.3161806 0.29611,1.85726 0.33662,3.75569 0.64128,5.61107 q 1.72284,10.4918297 2.8603401,21.0606697 c 0.8266,7.60394 1.49544,15.22718 2.61635,22.79807 0.20281,1.36977 0.0836,1.44153 -1.33277,1.53688 -2.6095101,0.17567 -5.2196101,0.33582 -8.1716501,0.33203 z m 7.4611201,19.45721 c 1.2741,-1.73768 1.2741,-1.73768 -0.20345,-3.83651 -0.585,-0.14329 -0.75431,0.84983 -1.4988501,0.486 -0.15663,-0.90612 1.2223901,-1.39958 0.8194101,-2.27214 a 5.66748,5.66748 0 0 0 -1.3838101,-2.48184 c -0.47744,0.65378 -0.90451,1.25506 -1.3498,1.84248 a 0.95673,0.95673 0 0 0 -0.11427,1.19506 35.29525,35.29525 0 0 0 3.7307701,5.06695 z m -0.478,-35.66374 a 6.34859,6.34859 0 0 0 -0.40342,-1.9755 0.67809,0.67809 0 0 0 -0.45085,-0.74072 0.96693,0.96693 0 0 0 -0.8776601,0.58047 1.35857,1.35857 0 0 0 -0.14236,1.08579 q 0.5283,3.43262 1.0816001,6.86138 a 0.52966,0.52966 0 0 0 0.36229,0.57434 0.66429,0.66429 0 0 0 0.6343,-0.31573 c 0.35158,-0.45861 0.19652,-3.20589 -0.29083,-3.31208 -1.0822201,-0.23582 -0.55772,-0.701 -0.29132,-1.11769 a 2.62406,2.62406 0 0 0 0.37821,-1.64026 z m -6.4707001,25.10715 a 7.29766,7.29766 0 0 0 1.49447,-2.10706 3.59314,3.59314 0 0 0 -1.13,-2.80438 0.55425,0.55425 0 0 0 -0.6731,0.11968 c -1.5936,1.17287 -1.75217,2.02763 -0.64522,3.6967 a 11.7612,11.7612 0 0 0 0.95385,1.09506 z m 2.4096,-1.54436 c -0.57229,1.07782 -1.70343,1.73341 -1.68373,2.71317 0.01862,0.92449 0.90529,1.71725 1.59922,2.43655 a 0.457,0.457 0 0 0 0.162,0.06624 c 1.79042,-2.08998 1.79307,-2.38342 -0.07747,-5.21596 z m -0.64449,-40.88774 c 1.87049,-1.919 2.81717,-3.86348 1.494,-6.31846 -1.86673,1.81511 -2.04688,2.53331 -1.494,6.31846 z m 1.72378,8.8336 c 1.85473,-1.0444 2.1374501,-2.5244 1.46711,-4.29152 -0.14681,-0.38706 0.1316,-0.8662 -0.25615,-1.205 -2.20573,2.04695 -2.30772,2.50701 -1.21096,5.49652 z m 0.56636,-10.03352 c -0.7462,0.85284 -1.98818,1.26932 -2.18979,2.247 a 6.35667,6.35667 0 0 0 0.691,3.524 c 1.21017,-1.87156 2.76472,-3.36182 1.49879,-5.771 z m -1.52,-9.78562 c -1.95345,1.21076 -2.325,3.06193 -1.1814,5.27566 1.77641,-1.44038 1.99136,-3.25827 1.18145,-5.27566 z m 2.6393,19.89342 c -1.76724,1.33448 -1.86632,2.03108 -0.71781,5.0465 1.9378801,-1.46833 1.1727601,-3.26342 0.71781,-5.0465 z m 1.8417101,15.60355 a 1.49931,1.49931 0 0 0 -0.9552,1.01807 1.59012,1.59012 0 0 0 0.0027,0.37233 c 0.28033,1.84984 0.56028,3.69978 0.85319,5.54765 0.05047,0.31846 0.18817,0.63119 0.5995,0.51728 a 0.42527,0.42527 0 0 0 0.2314,-0.60934 9.36748,9.36748 0 0 1 -0.19094,-2.4058 c -0.05477,-1.4043 -0.32791,-2.80008 -0.54065,-4.44019 z m -8.6255801,9.92454 c -1.74765,2.05254 -2.31226005,2.62076 -0.80533,3.90194 1.87435,-1.75802 1.98959,-2.25206 0.80533,-3.90193 z m 2.28691,-44.65964 c 0.67965,-1.8115697 2.31275,-2.8816797 1.34263,-4.9088897 -1.14056,1.32181 -2.27366,2.53568 -1.34263,4.9088897 z m 13.3104101,72.97633 c -0.16672,-1.69046 -1.28917,-2.80759 -2.37153,-3.95868 -0.06502,1.79146 1.22687,2.84144 2.37153,3.95868 z m -4.9888,-10.2063 a 1.00079,1.00079 0 0 0 -0.85568,0.4471 1.27041,1.27041 0 0 0 0.35026,2.02454 0.75034,0.75034 0 0 0 0.86966,-0.03112 0.55725,0.55725 0 0 0 0.33982,-0.75722 c -0.23375,-0.57313 -0.47726,-1.14231 -0.70407,-1.6833 z m 0.4426,3.87973 a 3.831,3.831 0 0 0 1.18972,1.91283 c 0.17347,0.18691 0.37238,8e-5 0.48184,-0.12221 0.66292,-0.7406 -0.256,-1.22683 -0.32383,-1.85532 a 1.0822,1.0822 0 0 0 -0.1832,-0.32591 0.58567,0.58567 0 0 0 -0.5524,-0.42892 0.934,0.934 0 0 0 -0.61215,0.81953 z M 6.6320739,3.4619783 c -0.92465,0.349 -1.30768,0.59 -1.05494,1.28673 z"
     id="path1009"
     inkscape:connector-curvature="0"
     style="fill:#e33180;fill-opacity:1" />
</svg>
