<?xml version="1.0" encoding="UTF-8" standalone="no"?>
<svg
   xmlns:dc="http://purl.org/dc/elements/1.1/"
   xmlns:cc="http://creativecommons.org/ns#"
   xmlns:rdf="http://www.w3.org/1999/02/22-rdf-syntax-ns#"
   xmlns:svg="http://www.w3.org/2000/svg"
   xmlns="http://www.w3.org/2000/svg"
   xmlns:sodipodi="http://sodipodi.sourceforge.net/DTD/sodipodi-0.dtd"
   xmlns:inkscape="http://www.inkscape.org/namespaces/inkscape"
   data-name="Слой 1"
   viewBox="0 0 85.98298 36.304295"
   x="0px"
   y="0px"
   version="1.1"
   id="svg1015"
   sodipodi:docname="arrowsx.svg"
   width="85.982979"
   height="36.304295"
   inkscape:version="0.92.5 (2060ec1f9f, 2020-04-08)">
  <metadata
     id="metadata1021">
    <rdf:RDF>
      <cc:Work
         rdf:about="">
        <dc:format>image/svg+xml</dc:format>
        <dc:type
           rdf:resource="http://purl.org/dc/dcmitype/StillImage" />
      </cc:Work>
    </rdf:RDF>
  </metadata>
  <defs
     id="defs1019" />
  <sodipodi:namedview
     pagecolor="#ffffff"
     bordercolor="#666666"
     borderopacity="1"
     objecttolerance="10"
     gridtolerance="10"
     guidetolerance="10"
     inkscape:pageopacity="0"
     inkscape:pageshadow="2"
     inkscape:window-width="1848"
     inkscape:window-height="1009"
     id="namedview1017"
     showgrid="false"
     inkscape:zoom="6.528"
     inkscape:cx="15.1116"
     inkscape:cy="26.886771"
     inkscape:window-x="0"
     inkscape:window-y="34"
     inkscape:window-maximized="1"
     inkscape:current-layer="svg1015" />
  <title
     id="title1007">Arrow-01-01-01-01</title>
  <path
     d="m 85.982978,18.4163 c -4.6125,2.8675 -9.19411,5.32341 -13.18953,8.69036 a 18.32907,18.32907 0 0 1 -2.7777,1.92866 c -3.71222,2.09816 -7.04272,4.79472 -10.79813,6.82761 -0.92073,0.49841 -1.56032,0.7468 -2.38658,-0.20566 a 6.157,6.157 0 0 0 -2.65073,-1.72924 1.46681,1.46681 0 0 1 -1.11577,-1.87328 c 0.32995,-1.61582 -0.03705,-3.253 0.18456,-4.88459 0.15216,-1.12024 -0.19968,-1.28982 -1.32782,-1.11725 -4.0113,0.61355 -8.0483,1.08625 -12.03312,1.83778 -4.43418,0.83635 -8.96618,1.17334 -13.32518,2.30167 -3.43015,0.88787 -6.94464,0.82171 -10.37916,1.50323 -2.3896,0.47417 -4.836,0.6605 -7.2553903,0.98753 a 3.79541,3.79541 0 0 0 -1.45888,0.31107 1.39022,1.39022 0 0 1 -1.805,-0.22486 29.54758,29.54758 0 0 0 -4.068,-2.27353 1.39842,1.39842 0 0 1 -1.0162,-1.34542 c -0.13767,-2.37805 -0.35325,-4.752 -0.56716,-7.12505 a 15.74138,15.74138 0 0 1 0.25771,-3.552 c 0.44289,-3.26535 -0.11858,-6.51629 -0.16219,-9.7749997 -0.0067,-0.50219 -0.07392,-1.00518 -0.05528,-1.50567 a 1.05317,1.05317 0 0 1 1.07487,-1.077 7.49009,7.49009 0 0 1 1.30735,-0.03957 c 7.002,0.588 14.0342103,0.69774 21.0329003,1.35851 2.56114,0.2418 5.14922,0.31307 7.71591,0.349 5.10134,0.07148 10.14261,0.71313 15.20474,1.176 0.6872,0.06282 1.386,-0.0026 2.07361,0.05749 a 7.51305,7.51305 0 0 1 3.286,0.63174 c 0.95423,0.5383897 1.50987,0.13642 1.70938,-0.95032 a 0.94,0.94 0 0 0 0.01862,-0.18744 c -0.05076,-2.441 -0.0638,-4.88377 -0.17317,-7.32217 -0.04624,-1.03099997 0.27788,-1.43673997 1.22186,-1.03757997 1.67635,0.70884 3.30237,1.53559997 4.96287,2.28319997 a 94.69163,94.69163 0 0 1 10.40124,5.659 53.02267,53.02267 0 0 0 9.17627,4.7367397 17.28078,17.28078 0 0 1 4.097,2.29072 18.01436,18.01436 0 0 1 2.8201,3.29532 z m -31.45772,13.79428 c 1.411,-0.79673 2.53107,-1.32457 3.591,-1.99746 a 95.04077,95.04077 0 0 1 8.50415,-5.1595 c 4.26772,-2.11713 8.39746,-4.4864 12.64645,-6.63307 a 5.11179,5.11179 0 0 0 2.70729,-2.42967 c -0.99335,-0.47507 -1.81163,-1.19935 -2.85088,-1.689 a 58.67239,58.67239 0 0 1 -7.69708,-3.92272 c -1.04333,-0.6942797 -2.15515,-1.2846797 -3.22066,-1.9467197 -3.19878,-1.98756 -6.64545,-3.50465 -9.96739,-5.25811 a 7.78237,7.78237 0 0 0 -3.5581,-1.265 c 0,2.252 -0.0059,4.44343 0.0041,6.63473 a 6.55049,6.55049 0 0 1 -0.07344,1.6864897 0.68461,0.68461 0 0 1 -0.93579,0.618 c -3.42579,-0.83109 -6.95972,-0.81934 -10.43681,-1.2452997 -1.479,-0.18117 -2.95874,-0.53268 -4.43512,-0.568 -8.26833,-0.198 -16.52317,-0.63384 -24.77481,-1.16953 -3.73986,-0.24276 -7.4840003,-0.41909 -11.2348103,-0.31694 -1.45412,0.03961 -1.45478,0.03779 -1.429,1.47509 0.0034,0.18852 0.02069,0.37676 0.02518,0.56528 0.08639,3.6291097 0.52324,7.2408497 0.05647,10.8935497 -0.30987,2.4249 0.29382,4.8769 0.42439,7.32085 0.04583,0.85805 0.36518,1.1722 1.31618,1.02058 1.85726,-0.29611 3.75569,-0.33662 5.61107,-0.64128 Q 19.289478,26.46001 29.858318,25.32251 c 7.60394,-0.8266 15.22718,-1.49544 22.79807,-2.61635 1.36977,-0.20281 1.44153,-0.0836 1.53688,1.33277 0.17567,2.60951 0.33582,5.21961 0.33203,8.17165 z m 19.45721,-7.46112 c -1.73768,-1.2741 -1.73768,-1.2741 -3.83651,0.20345 -0.14329,0.585 0.84983,0.75431 0.486,1.49885 -0.90612,0.15663 -1.39958,-1.22239 -2.27214,-0.81941 a 5.66748,5.66748 0 0 0 -2.48184,1.38381 c 0.65378,0.47744 1.25506,0.90451 1.84248,1.3498 a 0.95673,0.95673 0 0 0 1.19506,0.11427 35.29525,35.29525 0 0 0 5.06695,-3.73077 z m -35.66374,0.478 a 6.34859,6.34859 0 0 0 -1.9755,0.40342 0.67809,0.67809 0 0 0 -0.74072,0.45085 0.96693,0.96693 0 0 0 0.58047,0.87766 1.35857,1.35857 0 0 0 1.08579,0.14236 q 3.43262,-0.5283 6.86138,-1.0816 a 0.52966,0.52966 0 0 0 0.57434,-0.36229 0.66429,0.66429 0 0 0 -0.31573,-0.6343 c -0.45861,-0.35158 -3.20589,-0.19652 -3.31208,0.29083 -0.23582,1.08222 -0.701,0.55772 -1.11769,0.29132 a 2.62406,2.62406 0 0 0 -1.64026,-0.37821 z m 25.10715,6.4707 a 7.29766,7.29766 0 0 0 -2.10706,-1.49447 3.59314,3.59314 0 0 0 -2.80438,1.13 0.55425,0.55425 0 0 0 0.11968,0.6731 c 1.17287,1.5936 2.02763,1.75217 3.6967,0.64522 a 11.7612,11.7612 0 0 0 1.09506,-0.95385 z m -1.54436,-2.4096 c 1.07782,0.57229 1.73341,1.70343 2.71317,1.68373 0.92449,-0.01862 1.71725,-0.90529 2.43655,-1.59922 a 0.457,0.457 0 0 0 0.06624,-0.162 c -2.08998,-1.79042 -2.38342,-1.79307 -5.21596,0.07747 z m -40.88774,0.64449 c -1.919,-1.87049 -3.86348,-2.81717 -6.31846,-1.494 1.81511,1.86673 2.53331,2.04688 6.31846,1.494 z m 8.8336,-1.72378 c -1.0444,-1.85473 -2.5244,-2.13745 -4.29152,-1.46711 -0.38706,0.14681 -0.8662,-0.1316 -1.205,0.25615 2.04695,2.20573 2.50701,2.30772 5.49652,1.21096 z m -10.03352,-0.56636 c 0.85284,0.7462 1.26932,1.98818 2.247,2.18979 a 6.35667,6.35667 0 0 0 3.524,-0.691 c -1.87156,-1.21017 -3.36182,-2.76472 -5.771,-1.49879 z m -9.78562,1.52 c 1.21076,1.95345 3.06193,2.325 5.27566,1.1814 -1.44038,-1.77641 -3.25827,-1.99136 -5.27566,-1.18145 z m 19.89342,-2.6393 c 1.33448,1.76724 2.03108,1.86632 5.0465,0.71781 -1.46833,-1.93788 -3.26342,-1.17276 -5.0465,-0.71781 z m 15.60355,-1.84171 a 1.49931,1.49931 0 0 0 1.01807,0.9552 1.59012,1.59012 0 0 0 0.37233,-0.0027 c 1.84984,-0.28033 3.69978,-0.56028 5.54765,-0.85319 0.31846,-0.05047 0.63119,-0.18817 0.51728,-0.5995 a 0.42527,0.42527 0 0 0 -0.60934,-0.2314 9.36748,9.36748 0 0 1 -2.4058,0.19094 c -1.4043,0.05477 -2.80008,0.32791 -4.44019,0.54065 z m 9.92454,8.62558 c 2.05254,1.74765 2.62076,2.31226 3.90194,0.80533 -1.75802,-1.87435 -2.25206,-1.98959 -3.90193,-0.80533 z M 10.770108,31.02057 C 8.9585377,30.34092 7.8884277,28.70782 5.8612177,29.67794 c 1.32181,1.14056 2.53568,2.27366 4.9088903,1.34263 z m 72.97633,-13.31041 c -1.69046,0.16672 -2.80759,1.28917 -3.95868,2.37153 1.79146,0.06502 2.84144,-1.22687 3.95868,-2.37153 z m -10.2063,4.9888 a 1.00079,1.00079 0 0 0 0.4471,0.85568 1.27041,1.27041 0 0 0 2.02454,-0.35026 0.75034,0.75034 0 0 0 -0.03112,-0.86966 0.55725,0.55725 0 0 0 -0.75722,-0.33982 c -0.57313,0.23375 -1.14231,0.47726 -1.6833,0.70407 z m 3.87973,-0.4426 a 3.831,3.831 0 0 0 1.91283,-1.18972 c 0.18691,-0.17347 8e-5,-0.37238 -0.12221,-0.48184 -0.7406,-0.66292 -1.22683,0.256 -1.85532,0.32383 a 1.0822,1.0822 0 0 0 -0.32591,0.1832 0.58567,0.58567 0 0 0 -0.42892,0.5524 0.934,0.934 0 0 0 0.81953,0.61215 z M 3.4619777,29.67222 c 0.349,0.92465 0.59,1.30768 1.28673,1.05494 z"
     id="path1009"
     inkscape:connector-curvature="0"
     style="fill:#e33180;fill-opacity:1" />
</svg>
