<?xml version="1.0" encoding="UTF-8" standalone="no"?>
<svg
   xmlns:dc="http://purl.org/dc/elements/1.1/"
   xmlns:cc="http://creativecommons.org/ns#"
   xmlns:rdf="http://www.w3.org/1999/02/22-rdf-syntax-ns#"
   xmlns:svg="http://www.w3.org/2000/svg"
   xmlns="http://www.w3.org/2000/svg"
   xmlns:sodipodi="http://sodipodi.sourceforge.net/DTD/sodipodi-0.dtd"
   xmlns:inkscape="http://www.inkscape.org/namespaces/inkscape"
   data-name="Layer 1"
   viewBox="0 0 85.449997 74.389999"
   x="0px"
   y="0px"
   version="1.1"
   id="svg934"
   sodipodi:docname="blockchain.svg"
   width="85.449997"
   height="74.389999"
   inkscape:version="0.92.5 (2060ec1f9f, 2020-04-08)">
  <metadata
     id="metadata940">
    <rdf:RDF>
      <cc:Work
         rdf:about="">
        <dc:format>image/svg+xml</dc:format>
        <dc:type
           rdf:resource="http://purl.org/dc/dcmitype/StillImage" />
      </cc:Work>
    </rdf:RDF>
  </metadata>
  <defs
     id="defs938" />
  <sodipodi:namedview
     pagecolor="#ffffff"
     bordercolor="#666666"
     borderopacity="1"
     objecttolerance="10"
     gridtolerance="10"
     guidetolerance="10"
     inkscape:pageopacity="0"
     inkscape:pageshadow="2"
     inkscape:window-width="1848"
     inkscape:window-height="1009"
     id="namedview936"
     showgrid="false"
     inkscape:zoom="6.528"
     inkscape:cx="14.890319"
     inkscape:cy="37.705163"
     inkscape:window-x="0"
     inkscape:window-y="34"
     inkscape:window-maximized="1"
     inkscape:current-layer="svg934" />
  <title
     id="title904">Artboard 73</title>
  <path
     d="m 68.16,54 -6.8,6.39 v 9.52 h -4.84 v 2 h 4.84 v 2.44 h 17.3 L 85.45,68 V 54 Z M 69,56 h 13 l -4.06,3.82 h -13 z m 8.92,16.35 H 63.36 V 61.82 h 13.9 v 4.53 h 2 v -5.1 l 4.19,-3.94 v 9.79 z"
     id="path906"
     inkscape:connector-curvature="0"
     style="fill:#e33180;fill-opacity:1" />
  <rect
     x="77.260002"
     y="67.830002"
     width="2"
     height="2.8800001"
     id="rect908"
     style="fill:#e33180;fill-opacity:1" />
  <path
     d="M 24.14,68 V 54 H 6.84 L 0,60.39 v 14 h 17.3 l 2.6,-2.44 h 4.53 v -2 h -2.4 z M 7.63,56 h 13 l -4.06,3.82 h -13 z m 8.92,16.35 H 2 V 61.82 h 13.9 v 4.53 h 2 v -5.1 l 4.2,-3.94 v 9.79 z"
     id="path910"
     inkscape:connector-curvature="0"
     style="fill:#e33180;fill-opacity:1" />
  <rect
     x="15.940001"
     y="67.830002"
     width="2"
     height="2.8800001"
     id="rect912"
     style="fill:#e33180;fill-opacity:1" />
  <path
     d="M 33.25,39 H 38 V 37 H 33.25 A 2.3,2.3 0 0 1 31,34.67 V 17.33 A 2.3,2.3 0 0 1 33.25,15 h 19.5 A 2.3,2.3 0 0 1 55,17.33 V 21 h 2 V 17.33 A 4.34,4.34 0 0 0 55,13.67 V 11.24 A 11.25,11.25 0 0 0 43.76,0 H 43.24 A 11.25,11.25 0 0 0 32,11.24 v 2 a 4.32,4.32 0 0 0 -3,4.12 V 34.67 A 4.3,4.3 0 0 0 33.25,39 Z M 48,13 H 39 V 11.09 A 4.2,4.2 0 0 1 43.29,7 h 0.42 A 4.2,4.2 0 0 1 48,11.09 Z M 43.24,2 h 0.52 A 9.26,9.26 0 0 1 53,11.24 V 13 a 1.9,1.9 0 0 0 -0.25,0 H 50 V 11.09 A 6.2,6.2 0 0 0 43.71,5 H 43.29 A 6.2,6.2 0 0 0 37,11.09 V 13 H 34 V 11.24 A 9.26,9.26 0 0 1 43.24,2 Z"
     id="path914"
     inkscape:connector-curvature="0"
     style="fill:#e33180;fill-opacity:1" />
  <path
     d="m 57,30 h -2 v 4.65 A 2.31,2.31 0 0 1 52.72,37 H 46 v 2 h 6.72 A 4.32,4.32 0 0 0 57,34.65 Z"
     id="path916"
     inkscape:connector-curvature="0"
     style="fill:#e33180;fill-opacity:1" />
  <rect
     x="55"
     y="24"
     width="2"
     height="4"
     id="rect918"
     style="fill:#e33180;fill-opacity:1" />
  <rect
     x="40"
     y="37"
     width="4"
     height="2"
     id="rect920"
     style="fill:#e33180;fill-opacity:1" />
  <path
     d="M 46,24.37 V 20 h -6 v 4.37 a 4,4 0 1 0 6,0 z M 43,29 A 2,2 0 0 1 41.67,25.52 L 42,25.22 V 22 h 2 v 3.22 l 0.33,0.3 A 2,2 0 0 1 43,29 Z"
     id="path922"
     inkscape:connector-curvature="0"
     style="fill:#e33180;fill-opacity:1" />
  <path
     d="m 50,56 h 1.32 l -4.26,4 H 34.24 l 4.32,-4 H 42 V 48.29 H 40 V 54 H 37.77 L 31,60.27 v 9.64 h -4.33 v 2 H 31 V 74 h 17.23 l 2.26,-2.09 h 3.83 v -2 H 52.65 L 55,67.73 V 54 H 50 Z M 49,70.56 V 68 h -2 v 3 h 1.52 l -1.08,1 H 33 V 62 h 14 v 5 h 2 v -6.08 l 4,-3.76 v 9.7 z"
     id="path924"
     inkscape:connector-curvature="0"
     style="fill:#e33180;fill-opacity:1" />
  <rect
     x="40"
     y="41"
     width="2"
     height="5"
     id="rect926"
     style="fill:#e33180;fill-opacity:1" />
  <rect
     x="44"
     y="44"
     width="2"
     height="7"
     id="rect928"
     style="fill:#e33180;fill-opacity:1" />
</svg>
