<?xml version="1.0" encoding="UTF-8" standalone="no"?>
<svg
   xmlns:dc="http://purl.org/dc/elements/1.1/"
   xmlns:cc="http://creativecommons.org/ns#"
   xmlns:rdf="http://www.w3.org/1999/02/22-rdf-syntax-ns#"
   xmlns:svg="http://www.w3.org/2000/svg"
   xmlns="http://www.w3.org/2000/svg"
   xmlns:sodipodi="http://sodipodi.sourceforge.net/DTD/sodipodi-0.dtd"
   xmlns:inkscape="http://www.inkscape.org/namespaces/inkscape"
   version="1.1"
   x="0px"
   y="0px"
   viewBox="0 0 52.106998 61.457001"
   enable-background="new 0 0 64 64"
   xml:space="preserve"
   id="svg878"
   sodipodi:docname="contentcreators.svg"
   width="52.106998"
   height="61.457001"
   inkscape:version="0.92.5 (2060ec1f9f, 2020-04-08)"><metadata
     id="metadata884"><rdf:RDF><cc:Work
         rdf:about=""><dc:format>image/svg+xml</dc:format><dc:type
           rdf:resource="http://purl.org/dc/dcmitype/StillImage" /></cc:Work></rdf:RDF></metadata><defs
     id="defs882" /><sodipodi:namedview
     pagecolor="#ffffff"
     bordercolor="#666666"
     borderopacity="1"
     objecttolerance="10"
     gridtolerance="10"
     guidetolerance="10"
     inkscape:pageopacity="0"
     inkscape:pageshadow="2"
     inkscape:window-width="1848"
     inkscape:window-height="1009"
     id="namedview880"
     showgrid="false"
     inkscape:zoom="10.2"
     inkscape:cx="-9.7793334"
     inkscape:cy="31.559421"
     inkscape:window-x="0"
     inkscape:window-y="34"
     inkscape:window-maximized="1"
     inkscape:current-layer="svg878" /><path
     d="m 12.832,26.353 h 26.445 c 2.574,0 4.668,-2.094 4.668,-4.668 V 4.668 C 43.945,2.094 41.851,0 39.277,0 H 12.832 C 10.258,0 8.164,2.094 8.164,4.668 v 17.018 c 0,2.573 2.094,4.667 4.668,4.667 z M 19.364,6.537 c 0,-0.261 0.136,-0.503 0.358,-0.64 0.222,-0.135 0.5,-0.146 0.733,-0.028 l 13.002,6.641 c 0.251,0.128 0.409,0.386 0.409,0.668 0,0.282 -0.158,0.54 -0.409,0.668 l -13.002,6.64 c -0.107,0.055 -0.225,0.082 -0.341,0.082 -0.136,0 -0.272,-0.037 -0.392,-0.11 -0.223,-0.136 -0.358,-0.378 -0.358,-0.64 z"
     id="path868"
     inkscape:connector-curvature="0"
     style="fill:#e33180;fill-opacity:1" /><polygon
     points="37.413,14.449 26.81,9.034 26.81,19.864 "
     id="polygon870"
     transform="translate(-5.946,-1.272)"
     style="fill:#e33180;fill-opacity:1" /><path
     d="M 26.054,31.358 C 11.688,31.358 0,43.046 0,57.412 v 3.295 c 0,0.414 0.336,0.75 0.75,0.75 h 50.607 c 0.414,0 0.75,-0.336 0.75,-0.75 V 57.412 C 52.108,43.045 40.42,31.358 26.054,31.358 Z"
     id="path872"
     inkscape:connector-curvature="0"
     style="fill:#000000;fill-opacity:1" /></svg>