<?xml version="1.0" encoding="UTF-8" standalone="no"?>
<svg
   xmlns:dc="http://purl.org/dc/elements/1.1/"
   xmlns:cc="http://creativecommons.org/ns#"
   xmlns:rdf="http://www.w3.org/1999/02/22-rdf-syntax-ns#"
   xmlns:svg="http://www.w3.org/2000/svg"
   xmlns="http://www.w3.org/2000/svg"
   xmlns:sodipodi="http://sodipodi.sourceforge.net/DTD/sodipodi-0.dtd"
   xmlns:inkscape="http://www.inkscape.org/namespaces/inkscape"
   data-name="Layer 1"
   viewBox="0 0 56 52"
   x="0px"
   y="0px"
   version="1.1"
   id="svg870"
   sodipodi:docname="custumer.svg"
   width="56"
   height="52"
   inkscape:version="0.92.5 (2060ec1f9f, 2020-04-08)">
  <metadata
     id="metadata876">
    <rdf:RDF>
      <cc:Work
         rdf:about="">
        <dc:format>image/svg+xml</dc:format>
        <dc:type
           rdf:resource="http://purl.org/dc/dcmitype/StillImage" />
      </cc:Work>
    </rdf:RDF>
  </metadata>
  <defs
     id="defs874" />
  <sodipodi:namedview
     pagecolor="#ffffff"
     bordercolor="#666666"
     borderopacity="1"
     objecttolerance="10"
     gridtolerance="10"
     guidetolerance="10"
     inkscape:pageopacity="0"
     inkscape:pageshadow="2"
     inkscape:window-width="1848"
     inkscape:window-height="1009"
     id="namedview872"
     showgrid="false"
     inkscape:zoom="10.2"
     inkscape:cx="10.009804"
     inkscape:cy="23.581811"
     inkscape:window-x="0"
     inkscape:window-y="34"
     inkscape:window-maximized="1"
     inkscape:current-layer="svg870" />
  <path
     d="M 55,8 H 50 V 5 A 1,1 0 0 0 49,4 H 44 V 1 A 1,1 0 0 0 43,0 H 13 A 1,1 0 0 0 12,1 V 4 H 7 A 1,1 0 0 0 6,5 V 8 H 1 A 1,1 0 0 0 0,9 v 24 a 1,1 0 0 0 1,1 h 5 v 3 a 1,1 0 0 0 1,1 h 5 v 3 a 1,1 0 0 0 1,1 h 12 v 9 a 1,1 0 0 0 1,1 h 4 a 1,1 0 0 0 1,-1 v -9 h 12 a 1,1 0 0 0 1,-1 v -3 h 5 a 1,1 0 0 0 1,-1 v -3 h 5 a 1,1 0 0 0 1,-1 V 9 A 1,1 0 0 0 55,8 Z M 6,32 H 2 V 10 h 4 z m 36,8 H 31 v -1 a 1,1 0 0 0 -1,-1 h -1 v -5 a 12,12 0 1 0 -2,0 v 5 h -1 a 1,1 0 0 0 -1,1 v 1 H 14 V 2 H 42 Z M 25,17 A 3,3 0 1 1 29.76,19.42 4,4 0 0 1 32,23 v 5 H 24 V 23 A 4,4 0 0 1 26.24,19.42 3,3 0 0 1 25,17 Z M 54,32 H 50 V 10 h 4 z"
     id="path864"
     style="fill:#e33180;fill-opacity:1"
     inkscape:connector-curvature="0" />
</svg>
