<?xml version="1.0" encoding="UTF-8" standalone="no"?>
<svg
   xmlns:dc="http://purl.org/dc/elements/1.1/"
   xmlns:cc="http://creativecommons.org/ns#"
   xmlns:rdf="http://www.w3.org/1999/02/22-rdf-syntax-ns#"
   xmlns:svg="http://www.w3.org/2000/svg"
   xmlns="http://www.w3.org/2000/svg"
   xmlns:sodipodi="http://sodipodi.sourceforge.net/DTD/sodipodi-0.dtd"
   xmlns:inkscape="http://www.inkscape.org/namespaces/inkscape"
   version="1.1"
   x="0px"
   y="0px"
   viewBox="0 0 90 90"
   xml:space="preserve"
   id="svg973"
   sodipodi:docname="done.svg"
   width="90"
   height="90"
   inkscape:version="0.92.5 (2060ec1f9f, 2020-04-08)"
   enable-background="new"><metadata
     id="metadata979"><rdf:RDF><cc:Work
         rdf:about=""><dc:format>image/svg+xml</dc:format><dc:type
           rdf:resource="http://purl.org/dc/dcmitype/StillImage" /></cc:Work></rdf:RDF></metadata><defs
     id="defs977" /><sodipodi:namedview
     pagecolor="#ffffff"
     bordercolor="#666666"
     borderopacity="1"
     objecttolerance="10"
     gridtolerance="10"
     guidetolerance="10"
     inkscape:pageopacity="0"
     inkscape:pageshadow="2"
     inkscape:window-width="1848"
     inkscape:window-height="1009"
     id="namedview975"
     showgrid="false"
     inkscape:zoom="1.888"
     inkscape:cx="-52.192797"
     inkscape:cy="32.5"
     inkscape:window-x="1920"
     inkscape:window-y="34"
     inkscape:window-maximized="1"
     inkscape:current-layer="g967" /><g
     id="g967"
     transform="translate(-5,-5)"><path
       d="m 62.9,35.1 -19.8,19.8 -8,-8 c -2.3,-2.3 -6.1,-2.3 -8.5,0 -2.3,2.3 -2.3,6.1 0,8.5 l 12.3,12.3 c 1.1,1.1 2.7,1.8 4.2,1.8 1.6,0 3.1,-0.6 4.2,-1.8 l 24,-24 c 2.3,-2.3 2.3,-6.1 0,-8.5 -2.3,-2.4 -6.1,-2.4 -8.4,-0.1 z"
       id="path963"
       inkscape:connector-curvature="0"
       style="fill:#e33180;fill-opacity:1" /><path
       d="M 50,5 C 25.2,5 5,25.2 5,50 5,74.8 25.2,95 50,95 74.8,95 95,74.8 95,50 95,25.2 74.8,5 50,5 Z m 0,78 C 31.8,83 17,68.2 17,50 17,31.8 31.8,17 50,17 68.2,17 83,31.8 83,50 83,68.2 68.2,83 50,83 Z"
       id="path965"
       inkscape:connector-curvature="0"
       style="opacity:0.99;fill:#e33180;fill-opacity:1" /></g></svg>