<?xml version="1.0" encoding="UTF-8" standalone="no"?>
<svg
   xmlns:dc="http://purl.org/dc/elements/1.1/"
   xmlns:cc="http://creativecommons.org/ns#"
   xmlns:rdf="http://www.w3.org/1999/02/22-rdf-syntax-ns#"
   xmlns:svg="http://www.w3.org/2000/svg"
   xmlns="http://www.w3.org/2000/svg"
   xmlns:sodipodi="http://sodipodi.sourceforge.net/DTD/sodipodi-0.dtd"
   xmlns:inkscape="http://www.inkscape.org/namespaces/inkscape"
   version="1.1"
   x="0px"
   y="0px"
   viewBox="0 0 89.252266 89.196541"
   enable-background="new 0 0 91 91"
   xml:space="preserve"
   id="svg902"
   sodipodi:docname="handshake.svg"
   width="89.252266"
   height="89.196541"
   inkscape:version="0.92.5 (2060ec1f9f, 2020-04-08)"><metadata
     id="metadata908"><rdf:RDF><cc:Work
         rdf:about=""><dc:format>image/svg+xml</dc:format><dc:type
           rdf:resource="http://purl.org/dc/dcmitype/StillImage" /></cc:Work></rdf:RDF></metadata><defs
     id="defs906" /><sodipodi:namedview
     pagecolor="#ffffff"
     bordercolor="#666666"
     borderopacity="1"
     objecttolerance="10"
     gridtolerance="10"
     guidetolerance="10"
     inkscape:pageopacity="0"
     inkscape:pageshadow="2"
     inkscape:window-width="1848"
     inkscape:window-height="1009"
     id="namedview904"
     showgrid="false"
     inkscape:zoom="7.1736264"
     inkscape:cx="18.816731"
     inkscape:cy="32.849"
     inkscape:window-x="1920"
     inkscape:window-y="34"
     inkscape:window-maximized="1"
     inkscape:current-layer="g896" /><g
     id="g896"
     transform="translate(-1.1034591,-0.52745942)"><path
       d="m 48.532,32.09 16.536,16.532 c 0.082,0.081 0.188,0.123 0.297,0.123 0.106,0 0.216,-0.042 0.298,-0.123 l 9.361,-9.363 c 0.128,-0.127 0.158,-0.324 0.078,-0.486 C 71.591,31.771 64.456,24.088 61.553,21.11 c -0.078,-0.081 -0.187,-0.127 -0.298,-0.127 -0.08,-0.037 -0.222,0.045 -0.301,0.123 l -4.358,4.358 c -1.438,1.438 -3.033,2.167 -4.834,2.167 H 51.76 c -2.569,-0.099 -4.253,-1.973 -4.458,-2.21 l -1.061,-1.05 c -1.128,-1.128 -3.12,-1.13 -4.247,-0.002 l -7.519,7.516 c -0.564,0.562 -0.874,1.317 -0.874,2.123 0,0.808 0.31,1.563 0.874,2.127 l 0.837,0.836 c 1.085,1.083 3.175,1.077 4.243,0.008 l 6.803,-6.505 c 0.489,-0.468 1.316,-0.447 1.781,0.041 0.292,0.301 0.394,0.729 0.283,1.175 -0.035,0.143 0.006,0.295 0.11,0.4 z"
       id="path880"
       inkscape:connector-curvature="0" /><path
       d="m 28.097,61.771 c 0.326,0.326 0.798,0.513 1.29,0.513 0.49,0 0.96,-0.185 1.3,-0.517 l 8.14,-8.14 c 0.345,-0.345 0.535,-0.806 0.535,-1.299 0,-0.492 -0.19,-0.951 -0.535,-1.298 l -0.542,-0.539 c -0.693,-0.693 -1.907,-0.689 -2.59,-0.002 l -8.144,8.142 c -0.345,0.345 -0.535,0.806 -0.535,1.296 0,0.489 0.19,0.95 0.533,1.295 z"
       id="path882"
       inkscape:connector-curvature="0" /><path
       d="m 34.042,21.159 c -0.107,-0.104 -0.265,-0.147 -0.405,-0.108 -2.789,0.734 -12.282,4.196 -17.337,17.884 -0.057,0.154 -0.021,0.326 0.096,0.443 l 8.206,8.202 c 0.164,0.164 0.431,0.164 0.595,0 l 3.792,-3.792 c 0.779,-0.779 1.901,-1.226 3.078,-1.226 1.178,0 2.299,0.445 3.079,1.222 l 0.543,0.547 c 0.732,0.732 1.173,1.726 1.241,2.792 0.014,0.209 0.181,0.377 0.39,0.391 1.079,0.079 2.055,0.503 2.748,1.196 l 0.539,0.539 c 0.822,0.821 1.273,1.916 1.273,3.08 0,0.583 -0.11,1.145 -0.328,1.67 -0.042,0.104 -0.042,0.22 0,0.324 0.043,0.103 0.127,0.185 0.23,0.228 0.535,0.215 0.999,0.519 1.378,0.896 l 0.545,0.55 c 0.818,0.813 1.268,1.904 1.268,3.071 0,0.582 -0.111,1.145 -0.329,1.672 -0.043,0.103 -0.043,0.219 0,0.323 0.045,0.104 0.127,0.185 0.232,0.226 0.533,0.216 0.997,0.517 1.38,0.898 l 0.539,0.538 c 1.695,1.699 1.698,4.464 -0.024,6.19 -0.078,0.078 -0.123,0.186 -0.123,0.298 0,0.11 0.045,0.217 0.123,0.297 l 3.279,3.275 c 0.329,0.332 0.804,0.522 1.296,0.522 0.494,0 0.966,-0.19 1.294,-0.521 l 0.548,-0.545 c 0.569,-0.573 0.697,-1.467 0.308,-2.177 -0.025,-0.045 -4.005,-4.007 -4.005,-4.007 -0.488,-0.488 -0.49,-1.284 -0.007,-1.776 0.47,-0.475 1.292,-0.486 1.776,-0.016 0,0 4.02,3.936 4.064,3.959 0.679,0.376 1.632,0.242 2.187,-0.307 l 0.536,-0.54 c 0.347,-0.347 0.538,-0.808 0.538,-1.298 0,-0.447 -0.172,-0.881 -0.507,-1.229 -0.018,-0.035 -4.029,-4.069 -4.029,-4.069 -0.238,-0.238 -0.369,-0.554 -0.369,-0.891 0,-0.336 0.131,-0.651 0.369,-0.89 0.476,-0.479 1.304,-0.48 1.782,0 l 3.98,3.979 0.071,0.08 c 0.697,0.642 1.855,0.625 2.529,-0.045 l 0.537,-0.537 c 0.345,-0.343 0.534,-0.804 0.539,-1.301 0,-0.453 -0.175,-0.892 -0.492,-1.238 -0.008,-0.008 -0.021,-0.021 -0.035,-0.033 -0.02,-0.03 -0.047,-0.063 -0.063,-0.082 l -4.715,-4.715 c -0.49,-0.492 -0.49,-1.29 0,-1.782 0.477,-0.476 1.307,-0.478 1.782,0 l 4.743,4.741 c 0.017,0.025 0.054,0.066 0.075,0.087 0.699,0.642 1.859,0.626 2.535,-0.046 l 0.54,-0.539 c 0.347,-0.347 0.535,-0.808 0.535,-1.3 0,-0.491 -0.19,-0.95 -0.537,-1.297 L 46.896,34.014 C 46.736,33.852 46.473,33.85 46.309,34.008 L 41.32,38.78 c -1.021,1.023 -2.397,1.588 -3.878,1.588 -1.48,0 -2.867,-0.574 -3.909,-1.615 l -0.836,-0.834 c -1.04,-1.042 -1.614,-2.43 -1.614,-3.911 0,-1.48 0.572,-2.867 1.614,-3.902 l 4.848,-4.848 c 0.078,-0.08 0.124,-0.187 0.124,-0.297 0,-0.113 -0.045,-0.22 -0.124,-0.297 z"
       id="path884"
       inkscape:connector-curvature="0" /><path
       d="m 34.44,47.409 c 0,-0.494 -0.191,-0.953 -0.533,-1.294 l -0.546,-0.549 c -0.685,-0.681 -1.896,-0.685 -2.592,0.004 l -8.138,8.142 c -0.344,0.343 -0.535,0.804 -0.535,1.296 0,0.494 0.191,0.954 0.535,1.299 l 0.542,0.539 c 0.33,0.329 0.804,0.519 1.298,0.519 0.493,0 0.966,-0.189 1.298,-0.519 l 8.136,-8.14 c 0.344,-0.343 0.535,-0.805 0.535,-1.297 z"
       id="path886"
       inkscape:connector-curvature="0" /><path
       d="m 37.928,71.601 c 0.333,0.331 0.804,0.519 1.298,0.519 0.492,0 0.964,-0.188 1.296,-0.519 l 4.495,-4.495 c 0.714,-0.714 0.712,-1.879 -0.002,-2.598 L 44.476,63.972 C 43.779,63.28 42.564,63.282 41.881,63.97 l -4.497,4.495 c -0.714,0.716 -0.714,1.881 0.002,2.597 z"
       id="path888"
       inkscape:connector-curvature="0" /><path
       d="m 33.008,66.681 c 0.333,0.335 0.804,0.525 1.296,0.525 0.494,0 0.966,-0.19 1.3,-0.523 l 6.314,-6.318 c 0.345,-0.342 0.535,-0.804 0.535,-1.296 0,-0.489 -0.188,-0.949 -0.531,-1.292 l -0.548,-0.55 c -0.685,-0.687 -1.901,-0.683 -2.588,0.002 l -6.29,6.297 c -0.019,0.014 -0.035,0.029 -0.049,0.047 -0.333,0.343 -0.515,0.794 -0.515,1.271 0,0.495 0.191,0.957 0.535,1.299 z"
       id="path890"
       inkscape:connector-curvature="0" /><path
       d="m 4.685,58.25 c 0.181,0 0.365,-0.024 0.548,-0.074 1.12,-0.301 1.782,-1.451 1.482,-2.573 C 2.068,38.318 9.158,20.331 24.356,10.844 40.151,0.984 60.183,3.406 73.228,15.495 l -3.177,1.983 c -0.693,0.432 -1.07,1.226 -0.972,2.039 0.101,0.81 0.662,1.488 1.439,1.74 l 10.735,3.464 c 0.212,0.067 0.429,0.101 0.646,0.101 0.402,0 0.802,-0.115 1.146,-0.341 0.532,-0.344 0.876,-0.913 0.941,-1.542 l 1.131,-10.872 c 0.082,-0.797 -0.298,-1.573 -0.977,-1.997 -0.681,-0.425 -1.545,-0.425 -2.225,0 l -5.011,3.127 C 62.535,-0.823 39.903,-3.813 22.133,7.282 5.356,17.753 -2.47,37.611 2.659,56.694 2.912,57.632 3.758,58.25 4.685,58.25 Z"
       id="path892"
       inkscape:connector-curvature="0"
       style="fill:#e33180;fill-opacity:1" /><path
       d="m 86.138,31.649 c -1.117,0.313 -1.768,1.472 -1.456,2.59 4.808,17.148 -2.403,35.721 -17.53,45.167 -15.795,9.858 -35.829,7.432 -48.874,-4.66 l 3.671,-2.292 c 0.705,-0.439 1.085,-1.255 0.966,-2.078 -0.117,-0.824 -0.71,-1.499 -1.509,-1.724 L 10.172,65.493 C 9.575,65.327 8.931,65.431 8.419,65.78 7.906,66.131 7.574,66.69 7.514,67.31 L 6.451,78.145 c -0.078,0.796 0.301,1.567 0.982,1.989 0.339,0.21 0.724,0.316 1.108,0.316 0.385,0 0.771,-0.106 1.111,-0.32 l 4.955,-3.093 c 8.445,8.24 19.733,12.687 31.225,12.687 8.06,-0.002 16.218,-2.183 23.545,-6.756 16.697,-10.426 24.654,-30.93 19.349,-49.863 -0.312,-1.118 -1.47,-1.772 -2.588,-1.456 z"
       id="path894"
       inkscape:connector-curvature="0"
       style="fill:#e33180;fill-opacity:1" /></g></svg>