<?xml version="1.0" encoding="UTF-8" standalone="no"?>
<svg
   xmlns:dc="http://purl.org/dc/elements/1.1/"
   xmlns:cc="http://creativecommons.org/ns#"
   xmlns:rdf="http://www.w3.org/1999/02/22-rdf-syntax-ns#"
   xmlns:svg="http://www.w3.org/2000/svg"
   xmlns="http://www.w3.org/2000/svg"
   xmlns:sodipodi="http://sodipodi.sourceforge.net/DTD/sodipodi-0.dtd"
   xmlns:inkscape="http://www.inkscape.org/namespaces/inkscape"
   version="1.1"
   x="0px"
   y="0px"
   viewBox="0 0 48 48"
   xml:space="preserve"
   id="svg894"
   sodipodi:docname="letter.svg"
   width="48"
   height="48"
   inkscape:version="0.92.5 (2060ec1f9f, 2020-04-08)"><metadata
     id="metadata900"><rdf:RDF><cc:Work
         rdf:about=""><dc:format>image/svg+xml</dc:format><dc:type
           rdf:resource="http://purl.org/dc/dcmitype/StillImage" /></cc:Work></rdf:RDF></metadata><defs
     id="defs898" /><sodipodi:namedview
     pagecolor="#ffffff"
     bordercolor="#666666"
     borderopacity="1"
     objecttolerance="10"
     gridtolerance="10"
     guidetolerance="10"
     inkscape:pageopacity="0"
     inkscape:pageshadow="2"
     inkscape:window-width="1848"
     inkscape:window-height="1009"
     id="namedview896"
     showgrid="false"
     inkscape:zoom="13.6"
     inkscape:cx="10.507353"
     inkscape:cy="9.1768474"
     inkscape:window-x="0"
     inkscape:window-y="34"
     inkscape:window-maximized="1"
     inkscape:current-layer="svg894" /><polygon
     points="30,4 24,0 18,4 "
     id="polygon876"
     style="fill:#e33180;fill-opacity:1" /><path
     d="m 24,32 c -1,0 -3,1 -3,1 L 0,46 c 0,2 2,2 2,2 h 44 c 0,0 2,0 2,-2 L 27,33 c 0,0 -2,-1 -3,-1 z"
     id="path878"
     inkscape:connector-curvature="0"
     style="fill:#e33180;fill-opacity:1" /><polygon
     points="17.11,33.41 0,22 0,44 "
     id="polygon880"
     style="fill:#e33180;fill-opacity:1" /><polygon
     points="48,22 30.89,33.41 48,44 "
     id="polygon882"
     style="fill:#e33180;fill-opacity:1" /><polygon
     points="48,19 43,14 43,23 "
     id="polygon884"
     style="fill:#e33180;fill-opacity:1" /><polygon
     points="5,14 0,19 5,23 "
     id="polygon886"
     style="fill:#e33180;fill-opacity:1" /><path
     d="m 7,6 v 18 l 11,7 c 0,0 0.74,-0.37 2,-1 2,-1 4,-1 4,-1 0,0 2,0 4,1 1.26,0.63 2,1 2,1 L 41,24 V 6 Z"
     id="path888"
     inkscape:connector-curvature="0"
     style="fill:#e33180;fill-opacity:1" /></svg>