<?xml version="1.0" encoding="UTF-8" standalone="no"?>
<svg
   xmlns:dc="http://purl.org/dc/elements/1.1/"
   xmlns:cc="http://creativecommons.org/ns#"
   xmlns:rdf="http://www.w3.org/1999/02/22-rdf-syntax-ns#"
   xmlns:svg="http://www.w3.org/2000/svg"
   xmlns="http://www.w3.org/2000/svg"
   xmlns:sodipodi="http://sodipodi.sourceforge.net/DTD/sodipodi-0.dtd"
   xmlns:inkscape="http://www.inkscape.org/namespaces/inkscape"
   version="1.1"
   x="0px"
   y="0px"
   viewBox="0 0 128 128"
   xml:space="preserve"
   id="svg148"
   sodipodi:docname="recommender_icon3.svg"
   width="128"
   height="128"
   inkscape:version="0.92.5 (2060ec1f9f, 2020-04-08)"><metadata
     id="metadata154"><rdf:RDF><cc:Work
         rdf:about=""><dc:format>image/svg+xml</dc:format><dc:type
           rdf:resource="http://purl.org/dc/dcmitype/StillImage" /></cc:Work></rdf:RDF></metadata><defs
     id="defs152" /><sodipodi:namedview
     pagecolor="#ffffff"
     bordercolor="#666666"
     borderopacity="1"
     objecttolerance="10"
     gridtolerance="10"
     guidetolerance="10"
     inkscape:pageopacity="0"
     inkscape:pageshadow="2"
     inkscape:window-width="1848"
     inkscape:window-height="1009"
     id="namedview150"
     showgrid="false"
     inkscape:zoom="5.1"
     inkscape:cx="57.823529"
     inkscape:cy="63.686275"
     inkscape:window-x="72"
     inkscape:window-y="34"
     inkscape:window-maximized="1"
     inkscape:current-layer="g142" /><g
     id="g142"><circle
       cx="105"
       cy="9"
       r="3"
       id="circle118" /><circle
       cx="115"
       cy="9"
       r="3"
       id="circle120" /><path
       d="M 120,0 H 8 C 3.6,0 0,3.6 0,8 v 112 c 0,4.4 3.6,8 8,8 h 112 c 4.4,0 8,-3.6 8,-8 V 8 c 0,-4.4 -3.6,-8 -8,-8 z M 8,4 h 112 c 2.2,0 4,1.8 4,4 v 6 H 4 V 8 C 4,5.8 5.8,4 8,4 Z M 120,124 H 8 c -2.2,0 -4,-1.8 -4,-4 V 18 h 120 v 102 c 0,2.2 -1.8,4 -4,4 z"
       id="path122"
       inkscape:connector-curvature="0" /><path
       d="M 74,26 H 18 c -4.4,0 -8,3.6 -8,8 v 38 c 0,4.4 3.6,8 8,8 h 56 c 4.4,0 8,-3.6 8,-8 V 34 c 0,-4.4 -3.6,-8 -8,-8 z m 4,46 c 0,2.2 -1.8,4 -4,4 H 18 c -2.2,0 -4,-1.8 -4,-4 V 34 c 0,-2.2 1.8,-4 4,-4 h 56 c 2.2,0 4,1.8 4,4 z"
       id="path124"
       inkscape:connector-curvature="0" /><path
       d="M 110,26 H 94 c -4.4,0 -8,3.6 -8,8 v 9 c 0,4.4 3.6,8 8,8 h 16 c 4.4,0 8,-3.6 8,-8 v -9 c 0,-4.4 -3.6,-8 -8,-8 z m 4,17 c 0,2.2 -1.8,4 -4,4 H 94 c -2.2,0 -4,-1.8 -4,-4 v -9 c 0,-2.2 1.8,-4 4,-4 h 16 c 2.2,0 4,1.8 4,4 z"
       id="path126"
       style="fill:#e33180;fill-opacity:1"
       inkscape:connector-curvature="0" /><path
       d="M 110,55 H 94 c -4.4,0 -8,3.6 -8,8 v 9 c 0,4.4 3.6,8 8,8 h 16 c 4.4,0 8,-3.6 8,-8 v -9 c 0,-4.4 -3.6,-8 -8,-8 z m 4,17 c 0,2.2 -1.8,4 -4,4 H 94 c -2.2,0 -4,-1.8 -4,-4 v -9 c 0,-2.2 1.8,-4 4,-4 h 16 c 2.2,0 4,1.8 4,4 z"
       id="path128"
       style="fill:#e33180;fill-opacity:1"
       inkscape:connector-curvature="0" /><path
       d="M 110,84 H 94 c -4.4,0 -8,3.6 -8,8 v 9 c 0,4.4 3.6,8 8,8 h 16 c 4.4,0 8,-3.6 8,-8 v -9 c 0,-4.4 -3.6,-8 -8,-8 z m 4,17 c 0,2.2 -1.8,4 -4,4 H 94 c -2.2,0 -4,-1.8 -4,-4 v -9 c 0,-2.2 1.8,-4 4,-4 h 16 c 2.2,0 4,1.8 4,4 z"
       id="path130"
       style="fill:#e33180;fill-opacity:1"
       inkscape:connector-curvature="0" /><path
       d="M 76,86 H 16 c -1.1,0 -2,0.9 -2,2 0,1.1 0.9,2 2,2 h 60 c 1.1,0 2,-0.9 2,-2 0,-1.1 -0.9,-2 -2,-2 z"
       id="path132"
       inkscape:connector-curvature="0" /><path
       d="M 76,94 H 16 c -1.1,0 -2,0.9 -2,2 0,1.1 0.9,2 2,2 h 60 c 1.1,0 2,-0.9 2,-2 0,-1.1 -0.9,-2 -2,-2 z"
       id="path134"
       inkscape:connector-curvature="0" /><path
       d="M 76,102 H 16 c -1.1,0 -2,0.9 -2,2 0,1.1 0.9,2 2,2 h 60 c 1.1,0 2,-0.9 2,-2 0,-1.1 -0.9,-2 -2,-2 z"
       id="path136"
       inkscape:connector-curvature="0" /><path
       d="M 41,110 H 16 c -1.1,0 -2,0.9 -2,2 0,1.1 0.9,2 2,2 h 25 c 1.1,0 2,-0.9 2,-2 0,-1.1 -0.9,-2 -2,-2 z"
       id="path138"
       inkscape:connector-curvature="0" /><path
       d="M 50.6,50.9 41.4,45.1 C 39.5,44 38,44.8 38,47 v 12 c 0,2.2 1.5,3 3.4,1.9 l 9.2,-5.8 c 1.9,-1.1 1.9,-3.1 0,-4.2 z"
       id="path140"
       inkscape:connector-curvature="0" /></g><text
     x="0"
     y="148"
     font-size="5px"
     font-weight="bold"
     id="text146"
     style="font-weight:bold;font-size:5px;font-family:'Helvetica Neue', Helvetica, Arial-Unicode, Arial, Sans-serif;fill:#000000" />
</svg>