<?xml version="1.0" encoding="UTF-8" standalone="no"?>
<svg
   xmlns:dc="http://purl.org/dc/elements/1.1/"
   xmlns:cc="http://creativecommons.org/ns#"
   xmlns:rdf="http://www.w3.org/1999/02/22-rdf-syntax-ns#"
   xmlns:svg="http://www.w3.org/2000/svg"
   xmlns="http://www.w3.org/2000/svg"
   xmlns:sodipodi="http://sodipodi.sourceforge.net/DTD/sodipodi-0.dtd"
   xmlns:inkscape="http://www.inkscape.org/namespaces/inkscape"
   viewBox="0 0 272.11157 288"
   x="0px"
   y="0px"
   version="1.1"
   id="svg902"
   sodipodi:docname="thinking.svg"
   width="272.11157"
   height="288"
   inkscape:version="0.92.5 (2060ec1f9f, 2020-04-08)">
  <metadata
     id="metadata908">
    <rdf:RDF>
      <cc:Work
         rdf:about="">
        <dc:format>image/svg+xml</dc:format>
        <dc:type
           rdf:resource="http://purl.org/dc/dcmitype/StillImage" />
      </cc:Work>
    </rdf:RDF>
  </metadata>
  <defs
     id="defs906" />
  <sodipodi:namedview
     pagecolor="#ffffff"
     bordercolor="#666666"
     borderopacity="1"
     objecttolerance="10"
     gridtolerance="10"
     guidetolerance="10"
     inkscape:pageopacity="0"
     inkscape:pageshadow="2"
     inkscape:window-width="1848"
     inkscape:window-height="1009"
     id="namedview904"
     showgrid="false"
     inkscape:zoom="1.275"
     inkscape:cx="-127.86578"
     inkscape:cy="-3.1372549"
     inkscape:window-x="1920"
     inkscape:window-y="34"
     inkscape:window-maximized="1"
     inkscape:current-layer="svg902" />
  <path
     d="m 136.05579,48 a 88.1,88.1 0 0 0 -87.999999,88 c 0,44.343 31.031,81.4 40,91.188 V 280 a 8,8 0 0 0 8,8 h 79.999999 a 8,8 0 0 0 8,-8 v -52.812 c 8.969,-9.786 40,-46.845 40,-91.188 a 88.1,88.1 0 0 0 -88,-88 z m 32,224 h -64 v -16 h 64 z m 2.343,-53.657 a 8,8 0 0 0 -2.343,5.657 v 16 h -24 v -80 a 8,8 0 0 0 -8,-8 16,16 0 1 1 16,-16 8,8 0 0 0 16,0 32,32 0 1 0 -40,30.987 V 240 h -24 v -16 a 8.021,8.021 0 0 0 -2.337,-5.65 C 101.34179,217.971 64.055791,180.014 64.055791,136 a 72,72 0 0 1 143.999999,0 c 0,44.014 -37.286,81.971 -37.657,82.343 z"
     id="path882"
     inkscape:connector-curvature="0"
     style="fill:#e33180;fill-opacity:1" />
  <path
     d="M 144.05579,24 V 8 a 8,8 0 0 0 -16,0 v 16 a 8,8 0 0 0 16,0 z"
     id="path884"
     inkscape:connector-curvature="0"
     style="fill:#e33180;fill-opacity:1" />
  <path
     d="m 64.061791,56 a 8,8 0 0 0 7.149,-11.58 l -8,-16 a 8,8 0 0 0 -14.31,7.156 l 8,16 a 8,8 0 0 0 7.161,4.424 z"
     id="path886"
     inkscape:connector-curvature="0"
     style="fill:#e33180;fill-opacity:1" />
  <path
     d="m 27.633791,104.845 -16,-8 a 8,8 0 1 0 -7.1560001,14.31 l 16.0000001,8 a 8,8 0 0 0 7.156,-14.31 z"
     id="path888"
     inkscape:connector-curvature="0"
     style="fill:#e33180;fill-opacity:1" />
  <path
     d="m 208.04979,56 a 8,8 0 0 0 7.161,-4.424 l 8,-16 a 8,8 0 1 0 -14.31,-7.156 l -8,16 a 8,8 0 0 0 7.149,11.58 z"
     id="path890"
     inkscape:connector-curvature="0"
     style="fill:#e33180;fill-opacity:1" />
  <path
     d="m 260.47779,96.845 -16,8 a 8,8 0 1 0 7.156,14.31 l 16,-8 a 8,8 0 1 0 -7.156,-14.31 z"
     id="path892"
     inkscape:connector-curvature="0"
     style="fill:#e33180;fill-opacity:1" />
  <path
     d="m 12.477791,184.845 a 8,8 0 1 0 7.156,14.31 l 16,-8 a 8,8 0 1 0 -7.156,-14.31 z"
     id="path894"
     inkscape:connector-curvature="0"
     style="fill:#e33180;fill-opacity:1" />
  <path
     d="m 259.63379,184.845 -16,-8 a 8,8 0 0 0 -7.156,14.31 l 16,8 a 8,8 0 1 0 7.156,-14.31 z"
     id="path896"
     inkscape:connector-curvature="0"
     style="fill:#e33180;fill-opacity:1" />
</svg>
