<?xml version="1.0" encoding="UTF-8" standalone="no"?>
<svg
   xmlns:dc="http://purl.org/dc/elements/1.1/"
   xmlns:cc="http://creativecommons.org/ns#"
   xmlns:rdf="http://www.w3.org/1999/02/22-rdf-syntax-ns#"
   xmlns:svg="http://www.w3.org/2000/svg"
   xmlns="http://www.w3.org/2000/svg"
   xmlns:sodipodi="http://sodipodi.sourceforge.net/DTD/sodipodi-0.dtd"
   xmlns:inkscape="http://www.inkscape.org/namespaces/inkscape"
   version="1.1"
   x="0px"
   y="0px"
   viewBox="0 0 79.840172 79.915894"
   enable-background="new 0 0 100 100"
   xml:space="preserve"
   id="svg1579"
   sodipodi:docname="tobedone.svg"
   width="79.840172"
   height="79.915894"
   inkscape:version="0.92.5 (2060ec1f9f, 2020-04-08)"><metadata
     id="metadata1585"><rdf:RDF><cc:Work
         rdf:about=""><dc:format>image/svg+xml</dc:format><dc:type
           rdf:resource="http://purl.org/dc/dcmitype/StillImage" /></cc:Work></rdf:RDF></metadata><defs
     id="defs1583" /><sodipodi:namedview
     pagecolor="#ffffff"
     bordercolor="#666666"
     borderopacity="1"
     objecttolerance="10"
     gridtolerance="10"
     guidetolerance="10"
     inkscape:pageopacity="0"
     inkscape:pageshadow="2"
     inkscape:window-width="1848"
     inkscape:window-height="1009"
     id="namedview1581"
     showgrid="false"
     inkscape:zoom="1.888"
     inkscape:cx="-57.272625"
     inkscape:cy="27.458"
     inkscape:window-x="1920"
     inkscape:window-y="34"
     inkscape:window-maximized="1"
     inkscape:current-layer="svg1579" /><path
     d="m 15.882172,40.739891 -0.388,-0.315 c -0.854,-0.696 -2.115,-0.565 -2.813,0.291 -0.696,0.857 -0.565,2.117 0.292,2.813 l 0.388,0.315 c 0.37,0.301 0.816,0.448 1.26,0.448 0.581,0 1.158,-0.252 1.554,-0.739 0.695,-0.857 0.564,-2.117 -0.293,-2.813 z m 3.011,7.593 0.691,0.561 c 0.37,0.301 0.815,0.447 1.259,0.447 0.582,0 1.159,-0.253 1.554,-0.74 0.696,-0.858 0.565,-2.117 -0.293,-2.813 l -0.691,-0.561 c -0.855,-0.695 -2.117,-0.564 -2.813,0.293 -0.697,0.858 -0.566,2.117 0.293,2.813 z m 9.725,5.318 c 0.696,-0.858 0.565,-2.117 -0.293,-2.813 l -0.691,-0.561 c -0.855,-0.695 -2.117,-0.564 -2.813,0.293 -0.696,0.858 -0.565,2.117 0.293,2.813 l 0.691,0.561 c 0.37,0.301 0.815,0.447 1.259,0.447 0.583,0 1.16,-0.253 1.554,-0.74 z m 6.08,1.724 c -0.518,-0.487 -1.228,-0.646 -1.868,-0.482 -0.66,-0.079 -1.338,0.173 -1.787,0.725 -0.696,0.857 -0.565,2.117 0.292,2.813 l 0.388,0.315 c 0.369,0.3 0.815,0.448 1.26,0.448 0.534,0 1.064,-0.212 1.457,-0.628 l 0.343,-0.364 c 0.756,-0.804 0.719,-2.07 -0.085,-2.827 z m 18.45,-16.653 c 0.757,-0.804 0.72,-2.07 -0.085,-2.827 -0.802,-0.757 -2.068,-0.72 -2.827,0.085 l -0.68,0.722 c -0.757,0.804 -0.72,2.07 0.085,2.827 0.386,0.364 0.879,0.544 1.371,0.544 0.531,0 1.063,-0.211 1.456,-0.629 z m -8.258,7.843 c 0.531,0 1.063,-0.211 1.455,-0.628 l 0.68,-0.721 c 0.758,-0.804 0.721,-2.069 -0.083,-2.827 -0.804,-0.757 -2.071,-0.72 -2.827,0.084 l -0.68,0.721 c -0.758,0.804 -0.721,2.069 0.083,2.827 0.386,0.364 0.88,0.544 1.372,0.544 z m -6.897,2.4 -0.681,0.722 c -0.758,0.803 -0.721,2.069 0.083,2.827 0.387,0.364 0.879,0.545 1.372,0.545 0.531,0 1.062,-0.21 1.455,-0.628 l 0.681,-0.722 c 0.758,-0.803 0.721,-2.069 -0.083,-2.827 -0.803,-0.757 -2.068,-0.722 -2.827,0.083 z m 21.192,-19.563 c -0.802,-0.756 -2.069,-0.72 -2.827,0.085 l -0.68,0.722 c -0.757,0.804 -0.72,2.07 0.085,2.827 0.386,0.364 0.879,0.544 1.371,0.544 0.531,0 1.063,-0.211 1.456,-0.629 l 0.68,-0.722 c 0.756,-0.804 0.719,-2.07 -0.085,-2.827 z m 2.958,-6.051 -0.343,0.364 c -0.757,0.804 -0.72,2.07 0.084,2.827 0.387,0.364 0.88,0.544 1.372,0.544 0.531,0 1.063,-0.211 1.456,-0.628 l 0.343,-0.364 c 0.757,-0.804 0.72,-2.07 -0.085,-2.827 -0.803,-0.758 -2.07,-0.721 -2.827,0.084 z m -60.2860003,14.285 c 0.077,0.009 0.153,0.013 0.229,0.013 1.003,0 1.868,-0.753 1.984,-1.774 0.035,-0.308 0.073,-0.614 0.117,-0.919 0.155,-1.094 -0.605,-2.106 -1.699,-2.261 -1.093,-0.158 -2.10599998,0.605 -2.26199998,1.699 -0.048,0.342 -0.092,0.685 -0.131,1.029 -0.124,1.097 0.665,2.088 1.76199998,2.213 z m 70.5120003,-13.103 c 0.344,0.719 1.06,1.14 1.807,1.14 0.289,0 0.582,-0.063 0.859,-0.195 0.997,-0.475 1.42,-1.669 0.945,-2.666 -0.147,-0.31 -0.3,-0.617 -0.454,-0.922 -0.499,-0.985 -1.701,-1.378 -2.688,-0.88 -0.985,0.5 -1.379,1.703 -0.88,2.688 0.141,0.276 0.277,0.555 0.411,0.835 z m -70.0340003,21.92 c 1.097,-0.129 1.882,-1.123 1.753,-2.22 -0.036,-0.306 -0.068,-0.613 -0.096,-0.922 -0.099,-1.1 -1.067,-1.916 -2.171,-1.814 -1.09999998,0.099 -1.91199998,1.07 -1.81299998,2.17 0.031,0.346 0.067,0.69 0.107,1.032 0.119,1.018 0.98299998,1.767 1.98299998,1.767 0.079,10e-4 0.158,-0.004 0.237,-0.013 z m 3.689,5.904 c -0.106,-0.291 -0.209,-0.584 -0.308,-0.878 -0.353,-1.047 -1.488,-1.612 -2.534,-1.256 -1.047,0.353 -1.609,1.487 -1.257,2.534 0.11,0.326 0.225,0.651 0.343,0.975 0.296,0.811 1.063,1.313 1.878,1.313 0.229,0 0.46,-0.039 0.687,-0.122 1.037,-0.38 1.57,-1.528 1.191,-2.566 z m 3.262,6.67 c -0.585,-0.935 -1.82,-1.219 -2.757,-0.633 -0.936,0.587 -1.219,1.821 -0.632,2.757 0.183,0.292 0.368,0.581 0.559,0.868 0.385,0.581 1.021,0.895 1.669,0.895 0.38,0 0.764,-0.108 1.104,-0.333 0.9200003,-0.61 1.1720003,-1.852 0.562,-2.772 -0.172,-0.259 -0.34,-0.519 -0.505,-0.782 z m 65.5580003,-27.495 c 0.073,0.303 0.142,0.608 0.208,0.914 0.203,0.938 1.031,1.578 1.953,1.578 0.14,0 0.282,-0.015 0.425,-0.045 1.079,-0.233 1.766,-1.298 1.532,-2.377 -0.072,-0.335 -0.148,-0.669 -0.228,-1.001 -0.258,-1.075 -1.338,-1.737 -2.411,-1.479 -1.074,0.256 -1.736,1.336 -1.479,2.41 z m -37.331,-27.4850003 c 0.04,0 0.081,-10e-4 0.121,-0.003 0.311,-0.019 0.622,-0.034 0.933,-0.045 1.104,-0.04 1.967,-0.966 1.928,-2.07 -0.04,-1.10300002 -0.925,-1.97500002 -2.07,-1.92700002 -0.344,0.012 -0.687,0.028 -1.028,0.049 -1.103,0.066 -1.943,1.01400002 -1.877,2.11600002 0.062,1.062 0.943,1.88 1.993,1.88 z M 3.4131717,28.942891 c 0.224,0.081 0.452,0.119 0.678,0.119 0.819,0 1.588,-0.507 1.882,-1.323 0.104,-0.292 0.214,-0.581 0.327,-0.87 0.403,-1.028 -0.104,-2.189 -1.132,-2.592 -1.032,-0.405 -2.189,0.104 -2.593,1.131 -0.127,0.324 -0.248,0.648 -0.366,0.975 -0.374,1.039 0.165,2.185 1.204,2.56 z m 10.2800003,-14.541 c 0.494,0 0.989,-0.182 1.376,-0.549 0.226,-0.213 0.453,-0.424 0.684,-0.632 0.82,-0.74 0.886,-2.004 0.146,-2.825 -0.739,-0.8200003 -2.005,-0.8870003 -2.824,-0.146 -0.256,0.23 -0.509,0.464 -0.758,0.701 -0.802,0.76 -0.835,2.026 -0.075,2.828 0.394,0.414 0.922,0.623 1.451,0.623 z m 15.14,-8.8060003 c 0.192,0 0.388,-0.028 0.581,-0.086 0.295,-0.089 0.592,-0.175 0.891,-0.257 1.065,-0.291 1.693,-1.391 1.402,-2.456 -0.291,-1.065 -1.388,-1.698 -2.457,-1.402 -0.334,0.091 -0.666,0.187 -0.996,0.287 -1.058,0.32 -1.654,1.437 -1.334,2.494 0.262,0.863 1.056,1.42 1.913,1.42 z m 25.157,1.268 c 0.288,0.123 0.574,0.25 0.858,0.38 0.27,0.123 0.552,0.181 0.829,0.181 0.759,0 1.485,-0.435 1.82,-1.171 0.459,-1.005 0.016,-2.191 -0.989,-2.649 -0.313,-0.143 -0.627,-0.282 -0.942,-0.417 -1.014,-0.434 -2.19,0.036 -2.626,1.05 -0.435,1.015 0.035,2.191 1.05,2.626 z M 9.7271717,16.710891 c -0.908,-0.63 -2.153,-0.402 -2.783,0.504 -0.196,0.284 -0.39,0.57 -0.579,0.859 -0.605,0.924 -0.347,2.164 0.577,2.769 0.338,0.221 0.718,0.327 1.094,0.327 0.652,0 1.291,-0.318 1.675,-0.904 0.17,-0.26 0.3440003,-0.517 0.5210003,-0.771 0.628,-0.908 0.402,-2.154 -0.5050003,-2.784 z m 51.5130003,-5.686 c 0.249,0.184 0.495,0.371 0.738,0.562 0.366,0.286 0.8,0.425 1.231,0.425 0.594,0 1.182,-0.264 1.576,-0.768 0.681,-0.87 0.527,-2.1270003 -0.343,-2.8080003 -0.272,-0.213 -0.548,-0.422 -0.826,-0.628 -0.89,-0.657 -2.142,-0.467 -2.797,0.42 -0.655,0.889 -0.467,2.1410003 0.421,2.7970003 z m -23.452,64.895 c -0.312,-0.018 -0.62,-0.039 -0.93,-0.064 -1.097,-0.102 -2.066,0.729 -2.157,1.829 -0.091,1.101 0.729,2.067 1.829,2.157 0.343,0.028 0.687,0.052 1.031,0.071 0.039,0.002 0.077,0.003 0.115,0.003 1.053,0 1.935,-0.823 1.995,-1.887 0.063,-1.102 -0.78,-2.047 -1.883,-2.109 z m 33.26,-60.966 c -0.216,-0.269 -0.435,-0.534 -0.656,-0.796 -0.713,-0.844 -1.977,-0.949 -2.818,-0.236 -0.844,0.713 -0.949,1.975 -0.236,2.818 0.2,0.237 0.397,0.477 0.592,0.719 0.396,0.492 0.976,0.748 1.561,0.748 0.439,0 0.882,-0.144 1.251,-0.44 0.86,-0.693 0.997,-1.952 0.306,-2.813 z m 3.661,40.283 c -0.987,-0.496 -2.189,-0.097 -2.686,0.889 -0.14,0.279 -0.284,0.555 -0.431,0.83 -0.52,0.975 -0.151,2.186 0.823,2.706 0.3,0.16 0.622,0.236 0.939,0.236 0.715,0 1.406,-0.384 1.767,-1.059 0.162,-0.304 0.32,-0.609 0.476,-0.917 0.497,-0.986 0.098,-2.189 -0.888,-2.685 z m -7.281,7.868 c -0.2,0.238 -0.402,0.473 -0.608,0.706 -0.731,0.828 -0.654,2.091 0.173,2.823 0.381,0.336 0.854,0.502 1.324,0.502 0.554,0 1.104,-0.228 1.499,-0.675 0.228,-0.258 0.453,-0.519 0.675,-0.783 0.711,-0.845 0.602,-2.107 -0.244,-2.818 -0.848,-0.71 -2.109,-0.6 -2.819,0.245 z m 9.856,-16.315 c -1.067,-0.253 -2.151,0.413 -2.404,1.488 -0.071,0.303 -0.146,0.604 -0.226,0.903 -0.28,1.068 0.358,2.162 1.427,2.443 0.17,0.044 0.341,0.066 0.509,0.066 0.887,0 1.697,-0.594 1.934,-1.492 0.087,-0.333 0.17,-0.667 0.249,-1.002 0.253,-1.076 -0.414,-2.153 -1.489,-2.406 z m -62.777,18.765 c -0.784,-0.778 -2.052,-0.773 -2.828,0.012 -0.778,0.784 -0.772,2.051 0.012,2.828 0.245,0.243 0.493,0.483 0.744,0.719 0.386,0.363 0.878,0.543 1.37,0.543 0.532,0 1.063,-0.211 1.457,-0.63 0.757,-0.805 0.718,-2.07 -0.087,-2.827 -0.226,-0.212 -0.448,-0.427 -0.668,-0.645 z m 63.333,-27.734 c -1.104,0 -2,0.896 -2,2 v 0.156 c 0,0.31 -0.004,0.619 -0.012,0.928 -0.03,1.104 0.841,2.023 1.945,2.053 0.019,0 0.036,0 0.055,0 1.08,0 1.969,-0.86 1.998,-1.946 0.01,-0.344 0.014,-0.689 0.014,-1.036 v -0.156 c 0,-1.104 -0.896,-1.999 -2,-1.999 z m -16.488,31.024 c -0.248,0.185 -0.498,0.367 -0.751,0.546 -0.902,0.637 -1.117,1.885 -0.48,2.788 0.39,0.552 1.008,0.846 1.636,0.846 0.398,0 0.801,-0.119 1.151,-0.366 0.282,-0.199 0.562,-0.402 0.837,-0.607 0.885,-0.661 1.067,-1.914 0.406,-2.799 -0.66,-0.885 -1.912,-1.067 -2.799,-0.408 z m -40.709,-63.9680003 c -0.302,0.166 -0.601,0.334 -0.897,0.507 -0.955,0.555 -1.279,1.779 -0.725,2.734 0.372,0.639 1.042,0.995 1.731,0.995 0.341,0 0.687,-0.087 1.003,-0.271 0.268,-0.155 0.537,-0.308 0.81,-0.457 0.969,-0.531 1.324,-1.746 0.793,-2.715 -0.531,-0.967 -1.746,-1.323 -2.715,-0.793 z m 1.242,66.3100003 c -0.27,-0.156 -0.537,-0.314 -0.802,-0.477 -0.944,-0.577 -2.174,-0.281 -2.75,0.662 -0.576,0.942 -0.28,2.173 0.662,2.75 0.294,0.18 0.591,0.356 0.89,0.528 0.315,0.182 0.659,0.269 0.998,0.269 0.691,0 1.363,-0.359 1.734,-1 0.552,-0.956 0.225,-2.179 -0.732,-2.732 z m 32.24,1.845 c -0.282,0.123 -0.567,0.241 -0.854,0.356 -1.024,0.412 -1.521,1.577 -1.109,2.602 0.313,0.78 1.063,1.254 1.856,1.254 0.248,0 0.5,-0.046 0.745,-0.145 0.32,-0.129 0.637,-0.261 0.952,-0.397 1.014,-0.439 1.479,-1.617 1.04,-2.63 -0.438,-1.013 -1.616,-1.477 -2.63,-1.04 z m -24.57,1.455 c -0.297,-0.088 -0.593,-0.181 -0.887,-0.276 -1.051,-0.341 -2.179,0.232 -2.521,1.283 -0.343,1.05 0.232,2.179 1.282,2.521 0.327,0.106 0.656,0.209 0.988,0.308 0.189,0.056 0.381,0.083 0.569,0.083 0.862,0 1.658,-0.563 1.916,-1.432 0.316,-1.059 -0.288,-2.173 -1.347,-2.487 z m 18.119,-73.74300032 c -0.337,-0.067 -0.676,-0.129 -1.015,-0.188 -1.103,-0.186 -2.124,0.54400002 -2.311,1.63200002 -0.188,1.088 0.543,2.123 1.631,2.311 0.308,0.053 0.613,0.109 0.917,0.169 0.131,0.026 0.262,0.039 0.391,0.039 0.936,0 1.771,-0.66 1.96,-1.612 0.215,-1.084 -0.489,-2.13600002 -1.573,-2.35100002 z m -1.544,74.68600032 c -0.304,0.054 -0.609,0.104 -0.916,0.149 -1.093,0.163 -1.846,1.181 -1.684,2.273 0.148,0.993 1.002,1.706 1.976,1.706 0.099,0 0.198,-0.007 0.298,-0.022 0.342,-0.051 0.683,-0.106 1.021,-0.166 1.087,-0.192 1.813,-1.229 1.622,-2.317 -0.192,-1.089 -1.218,-1.812 -2.317,-1.623 z"
     id="path1573"
     inkscape:connector-curvature="0"
     style="fill:#e33180;fill-opacity:1" /></svg>